<svg width="86" height="86" viewBox="0 0 86 86" fill="none" xmlns="http://www.w3.org/2000/svg">
<path d="M44.5003 84.1132C34.6753 84.1132 26.9795 66.4042 26.9795 43.7978C26.9795 30.2005 29.8535 17.6492 34.6672 10.2265C34.7493 10.0964 34.8564 9.98399 34.9823 9.89566C35.1082 9.80733 35.2504 9.74487 35.4006 9.71189C35.5508 9.67891 35.706 9.67607 35.8574 9.70353C36.0087 9.731 36.153 9.78822 36.2821 9.87189C36.4111 9.95555 36.5223 10.064 36.6091 10.1909C36.6959 10.3179 36.7567 10.4608 36.7878 10.6114C36.819 10.762 36.82 10.9172 36.7907 11.0682C36.7615 11.2192 36.7025 11.3629 36.6173 11.4909C32.0372 18.5533 29.3038 30.6294 29.3038 43.799C29.3038 64.3925 36.2628 81.7901 44.5003 81.7901C52.7377 81.7901 59.7106 64.3925 59.7106 43.799C59.7106 23.2055 52.7458 5.80443 44.5003 5.80443C43.5146 5.81198 42.5445 6.05082 41.6681 6.50172C41.3924 6.64043 41.0728 6.66392 40.7798 6.56704C40.4868 6.47017 40.2442 6.26085 40.1055 5.98514C39.9668 5.70944 39.9433 5.38992 40.0402 5.09689C40.1371 4.80386 40.3464 4.56132 40.6221 4.42262C41.8213 3.80957 43.1477 3.48673 44.4944 3.4801C54.3275 3.4801 62.0291 21.1891 62.0291 43.7978C62.0291 66.4065 54.3333 84.1132 44.5003 84.1132Z" fill="#6DA544"/>
<path d="M21.8599 69.1167C21.2493 69.1167 20.6539 69.0985 20.0736 69.0621C19.7654 69.0425 19.4776 68.9013 19.2735 68.6695C19.0694 68.4378 18.9657 68.1344 18.9853 67.8262C19.0048 67.5179 19.146 67.2301 19.3778 67.026C19.6096 66.8219 19.913 66.7182 20.2212 66.7378C28.6376 67.2735 40.566 63.6139 52.1016 56.9547C61.0271 51.8028 68.5648 45.519 73.3355 39.2643C77.8273 33.3733 79.3067 28.1075 77.3973 24.8023C75.4878 21.4971 70.1837 20.1409 62.8365 21.0834C55.0373 22.0817 45.8248 25.4717 36.8924 30.6224C19.0649 40.9227 7.4816 55.6554 11.598 62.7946C12.0497 63.5726 12.6715 64.2385 13.4168 64.7424C13.6706 64.9173 13.8445 65.1859 13.9003 65.489C13.9561 65.7922 13.8892 66.1051 13.7143 66.3589C13.5394 66.6128 13.2708 66.7867 12.9676 66.8425C12.6644 66.8983 12.3515 66.8314 12.0977 66.6564C11.0663 65.956 10.2066 65.0315 9.58279 63.9521C4.67498 55.4427 16.1595 39.9163 35.7314 28.6096C44.9241 23.3078 54.4422 19.8155 62.5414 18.7777C70.9903 17.6911 76.9789 19.4204 79.4101 23.639C81.8414 27.8577 80.348 33.9009 75.1892 40.6763C70.2407 47.1681 62.4542 53.667 53.2685 58.9745C42.128 65.4013 30.5621 69.1167 21.8599 69.1167Z" fill="#6DA544"/>
<path d="M67.0849 69.1256C58.6558 69.1256 47.2619 65.631 35.7298 58.9729C16.1567 47.6639 4.67218 32.1433 9.58464 23.6386C12.017 19.4199 18.0068 17.6918 26.4534 18.7772C34.549 19.8151 44.0706 23.3097 53.2633 28.6091C66.6758 36.3561 77.0981 46.8272 79.8153 55.2854C79.862 55.4308 79.8796 55.5839 79.8671 55.7361C79.8546 55.8883 79.8123 56.0365 79.7425 56.1723C79.6727 56.3081 79.5769 56.4289 79.4605 56.5276C79.344 56.6264 79.2093 56.7013 79.0639 56.748C78.9185 56.7947 78.7654 56.8123 78.6132 56.7998C78.4611 56.7873 78.3128 56.745 78.177 56.6752C78.0412 56.6055 77.9205 56.5096 77.8217 56.3932C77.7229 56.2768 77.648 56.142 77.6013 55.9967C75.0516 48.0568 65.043 38.0994 52.1012 30.622C43.1688 25.4713 33.9563 22.0813 26.1571 21.0818C18.8099 20.1405 13.5034 21.4944 11.5975 24.8007C7.4788 31.9329 19.0621 46.6587 36.892 56.9612C54.7218 67.2638 73.2746 69.9275 77.3968 62.793C77.5467 62.5293 77.7911 62.3324 78.0806 62.242C78.3701 62.1516 78.6831 62.1745 78.9564 62.306C79.2222 62.4343 79.427 62.6619 79.5266 62.9397C79.6261 63.2175 79.6125 63.5234 79.4887 63.7913L79.4341 63.9075C77.4049 67.423 72.9655 69.1256 67.0849 69.1256Z" fill="#6DA544"/>
<path d="M38.0447 12.8579C37.0461 12.8581 36.0699 12.5622 35.2395 12.0075C34.4091 11.4529 33.7619 10.6644 33.3796 9.74191C32.9974 8.81938 32.8973 7.80421 33.0921 6.82481C33.2868 5.8454 33.7677 4.94575 34.4738 4.23964C35.1799 3.53353 36.0795 3.05269 37.0589 2.85794C38.0383 2.66318 39.0535 2.76325 39.976 3.1455C40.8986 3.52775 41.687 4.175 42.2417 5.00539C42.7963 5.83578 43.0922 6.812 43.092 7.81058C43.0904 9.14873 42.5582 10.4316 41.612 11.3778C40.6658 12.3241 39.3829 12.8563 38.0447 12.8579ZM38.0447 5.08648C37.5059 5.08625 36.9791 5.24582 36.531 5.54501C36.0828 5.84419 35.7335 6.26956 35.5271 6.76731C35.3208 7.26505 35.2667 7.81282 35.3716 8.34132C35.4766 8.86982 35.736 9.35532 36.1169 9.73641C36.4978 10.1175 36.9832 10.3771 37.5117 10.4823C38.0401 10.5875 38.5879 10.5336 39.0858 10.3274C39.5836 10.1213 40.0091 9.77214 40.3085 9.32414C40.6079 8.87614 40.7677 8.34941 40.7677 7.81058C40.767 7.0885 40.48 6.39614 39.9695 5.88544C39.459 5.37474 38.7668 5.0874 38.0447 5.08648Z" fill="#D80027"/>
<path d="M79.185 64.5347C78.1867 64.5347 77.2109 64.2387 76.3809 63.6841C75.5508 63.1295 74.9039 62.3412 74.5219 61.419C74.1399 60.4967 74.0399 59.4819 74.2347 58.5028C74.4294 57.5237 74.9101 56.6244 75.616 55.9185C76.3219 55.2126 77.2212 54.7319 78.2003 54.5372C79.1794 54.3424 80.1942 54.4424 81.1165 54.8244C82.0387 55.2064 82.827 55.8533 83.3816 56.6833C83.9362 57.5134 84.2322 58.4892 84.2322 59.4875C84.2307 60.8256 83.6984 62.1085 82.7522 63.0547C81.806 64.0009 80.5231 64.5332 79.185 64.5347ZM79.185 56.7645C78.6464 56.7645 78.12 56.9242 77.6722 57.2234C77.2244 57.5226 76.8754 57.9479 76.6693 58.4454C76.4632 58.943 76.4093 59.4905 76.5143 60.0187C76.6194 60.5469 76.8787 61.0321 77.2596 61.4129C77.6404 61.7937 78.1255 62.053 78.6537 62.1581C79.1819 62.2631 79.7294 62.2092 80.227 62.0031C80.7245 61.797 81.1498 61.448 81.449 61.0002C81.7482 60.5525 81.9079 60.026 81.9079 59.4875C81.907 58.7656 81.6198 58.0735 81.1094 57.5631C80.5989 57.0526 79.9069 56.7654 79.185 56.7645Z" fill="#D80027"/>
<path d="M16.3228 72.3044C15.3243 72.3044 14.3482 72.0083 13.518 71.4535C12.6877 70.8987 12.0407 70.1102 11.6586 69.1876C11.2765 68.2651 11.1766 67.25 11.3715 66.2706C11.5664 65.2913 12.0473 64.3918 12.7535 63.6858C13.4596 62.9798 14.3593 62.499 15.3387 62.3044C16.318 62.1097 17.3331 62.2099 18.2556 62.5921C19.1781 62.9744 19.9664 63.6217 20.521 64.452C21.0756 65.2824 21.3715 66.2586 21.3713 67.2571C21.3697 68.5955 20.8373 69.8785 19.8909 70.8248C18.9444 71.771 17.6612 72.3032 16.3228 72.3044ZM16.3228 64.533C15.7841 64.533 15.2574 64.6928 14.8094 64.9921C14.3614 65.2914 14.0123 65.7169 13.8061 66.2146C13.5999 66.7124 13.546 67.2601 13.6511 67.7886C13.7562 68.317 14.0156 68.8024 14.3966 69.1834C14.7776 69.5643 15.263 69.8238 15.7914 69.9289C16.3198 70.034 16.8676 69.98 17.3653 69.7739C17.8631 69.5677 18.2885 69.2185 18.5879 68.7706C18.8872 68.3226 19.047 67.7959 19.047 67.2571C19.0463 66.5348 18.7591 65.8423 18.2484 65.3316C17.7377 64.8208 17.0451 64.5336 16.3228 64.533Z" fill="#D80027"/>
<path d="M44.5 53.412C42.5963 53.412 40.7354 52.8475 39.1525 51.7898C37.5697 50.7321 36.336 49.2288 35.6076 47.47C34.8791 45.7112 34.6886 43.7759 35.06 41.9088C35.4315 40.0417 36.3483 38.3267 37.6945 36.9807C39.0407 35.6346 40.7558 34.718 42.623 34.3468C44.4901 33.9755 46.4255 34.1663 48.1842 34.895C49.9429 35.6237 51.446 36.8575 52.5035 38.4405C53.561 40.0234 54.1253 41.8845 54.1251 43.7881C54.122 46.3398 53.1069 48.7861 51.3025 50.5902C49.4981 52.3944 47.0517 53.4092 44.5 53.412ZM44.5 36.4863C43.0561 36.4863 41.6447 36.9145 40.4441 37.7166C39.2435 38.5188 38.3078 39.6589 37.7552 40.9929C37.2026 42.3268 37.0579 43.7947 37.3395 45.2109C37.6211 46.627 38.3163 47.9279 39.3372 48.9489C40.3581 49.97 41.6589 50.6654 43.075 50.9472C44.4911 51.2291 45.959 51.0847 47.2931 50.5323C48.6271 49.9799 49.7674 49.0443 50.5698 47.8439C51.3721 46.6434 51.8005 45.232 51.8007 43.7881C51.7974 41.8532 51.027 39.9986 49.6585 38.6308C48.2899 37.2629 46.4349 36.4934 44.5 36.491V36.4863Z" fill="#D80027"/>
</svg>
