<svg width="35" height="35" viewBox="0 0 35 35" fill="none" xmlns="http://www.w3.org/2000/svg">
<path d="M35 5.83359H0V29.1664H35V5.83359Z" fill="#D80027"/>
<path d="M35 5.83359H0V13.6112H35V5.83359Z" fill="#338AF3"/>
<path d="M35 21.3889H0V29.1664H35V21.3889Z" fill="#6DA544"/>
<path d="M17.7188 20.3437C16.1482 20.3437 14.875 19.0706 14.875 17.5C14.875 15.9294 16.1482 14.6562 17.7188 14.6562C18.2085 14.6562 18.6692 14.78 19.0715 14.998C18.4404 14.381 17.5774 14 16.625 14C14.692 14 13.125 15.567 13.125 17.5C13.125 19.433 14.692 21 16.625 21C17.5774 21 18.4404 20.619 19.0715 20.002C18.6692 20.22 18.2085 20.3437 17.7188 20.3437Z" fill="#F0F0F0"/>
<path d="M19.9063 15.5313L20.2829 16.5906L21.2984 16.1079L20.8156 17.1233L21.875 17.5L20.8156 17.8768L21.2984 18.8922L20.2829 18.4094L19.9063 19.4688L19.5296 18.4094L18.5141 18.8922L18.9969 17.8768L17.9375 17.5L18.9969 17.1233L18.5141 16.1079L19.5296 16.5906L19.9063 15.5313Z" fill="#F0F0F0"/>
</svg>
