<svg width="60" height="60" viewBox="0 0 60 60" fill="none" xmlns="http://www.w3.org/2000/svg">
<g clip-path="url(#clip0)">
<path d="M55.862 56.7814H4.13779C2.9951 56.7814 2.06885 55.8552 2.06885 54.7125V51.609H57.931V54.7125C57.931 55.8552 57.0047 56.7814 55.862 56.7814Z" fill="#C8E650"/>
<path d="M53.7929 21.6091L47.5805 9.64362L29.9998 5.05737L12.4134 9.64515L6.20679 21.6091V50.5746H53.7929V21.6091Z" fill="#FF6464"/>
<path d="M35.1722 15.4022H24.8274V25.7471H35.1722V15.4022Z" fill="#C8414B"/>
<path d="M43.4482 46.4366V32.9884H16.5515V46.4366H6.20679V51.609H53.7929V46.4366H43.4482Z" fill="#C8414B"/>
<path d="M54.5939 27.3297L45.2035 12.3057L29.9999 7.55456L14.7964 12.3057L5.4059 27.3297C5.10308 27.8142 4.465 27.9614 3.98055 27.6587L2.22648 26.5627C1.74191 26.26 1.59449 25.6217 1.89742 25.1373L12.1 8.81234L29.9999 3.21863L47.8998 8.81234L58.1024 25.1373C58.4052 25.6218 58.2578 26.26 57.7734 26.5627L56.0194 27.6587C55.5348 27.9615 54.8969 27.8141 54.5939 27.3297Z" fill="#AFB9D2"/>
<path d="M43.4484 49.8425L38.0001 42.2988L43.4484 34.7551V32.8591H42.2659L36.7243 40.5321L31.1828 32.8591H28.8177L23.2761 40.5321L17.7345 32.8591H16.552V34.7551L22.0003 42.2988L16.552 49.8425V51.6091H17.8279L23.2762 44.0654L28.7245 51.6091H31.2763L36.7246 44.0654L42.1728 51.6091H43.4488V49.8425H43.4484ZM30.0001 49.8425L24.5518 42.2988L30.0001 34.7551L35.4484 42.2988L30.0001 49.8425Z" fill="#D7DEED"/>
<path d="M31.463 20.5746L35.9041 16.1336C36.3081 15.7295 36.3081 15.0748 35.9041 14.6707C35.5 14.2667 34.8453 14.2667 34.4412 14.6707L30.0002 19.1118L25.5591 14.6707C25.155 14.2667 24.5003 14.2667 24.0963 14.6707C23.6922 15.0748 23.6922 15.7295 24.0963 16.1336L28.5373 20.5746L24.0963 25.0157C23.6922 25.4197 23.6922 26.0745 24.0963 26.4785C24.2984 26.6807 24.5629 26.7816 24.8276 26.7816C25.0924 26.7816 25.3571 26.6806 25.559 26.4785L30.0002 22.0375L34.4412 26.4785C34.6434 26.6807 34.9079 26.7816 35.1726 26.7816C35.4373 26.7816 35.7019 26.6806 35.904 26.4785C36.308 26.0745 36.308 25.4197 35.904 25.0157L31.463 20.5746Z" fill="#D7DEED"/>
<path d="M35.1726 26.7815H24.8277C24.2565 26.7815 23.7932 26.3182 23.7932 25.7469V15.4021C23.7932 14.8308 24.2565 14.3676 24.8277 14.3676H35.1726C35.7439 14.3676 36.2071 14.8308 36.2071 15.4021V25.7469C36.2071 26.3183 35.7439 26.7815 35.1726 26.7815ZM25.8623 24.7125H34.1382V16.4366H25.8623V24.7125Z" fill="#E4EAF6"/>
<path d="M44.4829 51.6091V34.0229C45.0542 34.0229 45.5174 33.5597 45.5174 32.9884V31.9538C45.5174 31.3826 45.0542 30.9193 44.4829 30.9193H15.5174C14.9462 30.9193 14.4829 31.3826 14.4829 31.9538V32.9884C14.4829 33.5597 14.9462 34.0229 15.5174 34.0229V51.6091H17.5864V34.0229H28.9656V51.6091H31.0346V34.0229H42.4138V51.6091H44.4829Z" fill="#E4EAF6"/>
<path d="M58.9655 52.6435H1.03453C0.463242 52.6435 0 52.1803 0 51.609C0 51.0377 0.463242 50.5745 1.03453 50.5745H58.9656C59.5369 50.5745 60.0001 51.0377 60.0001 51.609C60 52.1803 59.5368 52.6435 58.9655 52.6435Z" fill="#A0DC64"/>
</g>
<defs>
<clipPath id="clip0">
<rect width="60" height="60" fill="white"/>
</clipPath>
</defs>
</svg>
