<svg width="35" height="35" viewBox="0 0 35 35" fill="none" xmlns="http://www.w3.org/2000/svg">
<g clip-path="url(#clip0)">
<path d="M35.0003 5.84641H0.0383301V29.1539H35.0003V5.84641Z" fill="#6DA544"/>
<path d="M0 21.5535H34.962V5.84604H0" fill="#A2001D"/>
<path d="M6.84038 21.5535V20.5402V5.84604H0V29.154H34.962H6.84038V21.5535Z" fill="#F0F0F0"/>
<path d="M4.68718 16.6555L3.42041 14.3574L4.68718 12.0953L5.95381 14.3574L4.68718 16.6555Z" fill="#A2001D"/>
<path d="M2.15366 16.6555L0.886963 14.3574L2.15366 12.0953L3.42043 14.3574L2.15366 16.6555Z" fill="#A2001D"/>
<path d="M4.68718 22.9047L3.42041 20.6066L4.68718 18.3445L5.95381 20.6066L4.68718 22.9047Z" fill="#A2001D"/>
<path d="M2.15366 22.9047L0.886963 20.6066L2.15366 18.3445L3.42043 20.6066L2.15366 22.9047Z" fill="#A2001D"/>
<path d="M4.68718 29.154L3.42041 26.8559L4.68718 24.5937L5.95381 26.8559L4.68718 29.154Z" fill="#A2001D"/>
<path d="M2.15366 29.154L0.886963 26.8559L2.15366 24.5937L3.42043 26.8559L2.15366 29.154Z" fill="#A2001D"/>
<path d="M4.68718 10.4064L3.42041 8.10822L4.68718 5.84601L5.95381 8.10822L4.68718 10.4064Z" fill="#A2001D"/>
<path d="M2.15366 10.4064L0.886963 8.10822L2.15366 5.84601L3.42043 8.10822L2.15366 10.4064Z" fill="#A2001D"/>
</g>
<defs>
<clipPath id="clip0">
<rect width="35" height="35" fill="white"/>
</clipPath>
</defs>
</svg>
