<svg width="20" height="20" viewBox="0 0 20 20" fill="none" xmlns="http://www.w3.org/2000/svg">
<g clip-path="url(#clip0)">
<path d="M11.373 19.9609H8.1724C7.63779 19.9609 7.2029 19.5258 7.2029 18.9908V11.7667H5.33558C4.80097 11.7667 4.36609 11.3313 4.36609 10.7965V7.70096C4.36609 7.16599 4.80097 6.73081 5.33558 6.73081H7.2029V5.18067C7.2029 3.64365 7.68521 2.33597 8.59752 1.39923C9.51395 0.458222 10.7947 -0.0390625 12.3012 -0.0390625L14.7422 -0.0350952C15.2759 -0.0341797 15.71 0.401001 15.71 0.935059V3.8092C15.71 4.34418 15.2753 4.77936 14.7408 4.77936L13.0973 4.77997C12.5961 4.77997 12.4685 4.88052 12.4412 4.91135C12.3962 4.96246 12.3427 5.10697 12.3427 5.50598V6.73065H14.6173C14.7885 6.73065 14.9544 6.77292 15.097 6.85257C15.4046 7.02454 15.5958 7.3497 15.5958 7.70111L15.5946 10.7967C15.5946 11.3313 15.1597 11.7665 14.6251 11.7665H12.3427V18.9908C12.3427 19.5258 11.9076 19.9609 11.373 19.9609ZM8.37459 18.7885H11.1708V11.2418C11.1708 10.8846 11.4613 10.594 11.8181 10.594H14.4229L14.4239 7.90329H11.818C11.4612 7.90329 11.1708 7.61276 11.1708 7.25556V5.50598C11.1708 5.04791 11.2174 4.52698 11.5629 4.13544C11.9804 3.66211 12.6384 3.60748 13.097 3.60748L14.5383 3.60687V1.13709L12.3003 1.13342C9.87915 1.13342 8.37459 2.68433 8.37459 5.18067V7.25556C8.37459 7.61261 8.08426 7.90329 7.72745 7.90329H5.53778V10.594H7.72745C8.08426 10.594 8.37459 10.8846 8.37459 11.2418V18.7885ZM14.7399 1.13739H14.74H14.7399Z" fill="white"/>
</g>
<defs>
<clipPath id="clip0">
<rect width="19.9474" height="20" fill="white" transform="translate(0.0526123)"/>
</clipPath>
</defs>
</svg>
