<svg width="35" height="35" viewBox="0 0 35 35" fill="none" xmlns="http://www.w3.org/2000/svg">
<path d="M35 5.83331H0V29.1669H35V5.83331Z" fill="#F0F0F0"/>
<path d="M19.6875 5.83319H15.3125V15.3123H0V19.6873H15.3125V29.1664H19.6875V19.6873H35V15.3123H19.6875V5.83319Z" fill="#D80027"/>
<path d="M8.41696 9.81203V8.29028H6.89528V9.81203H5.37354V11.3338H6.89528V12.8555H8.41696V11.3338H9.93871V9.81203H8.41696Z" fill="#D80027"/>
<path d="M28.1045 9.81203V8.29028H26.5828V9.81203H25.061V11.3338H26.5828V12.8555H28.1045V11.3338H29.6262V9.81203H28.1045Z" fill="#D80027"/>
<path d="M8.41696 23.6658V22.144H6.89528V23.6658H5.37354V25.1875H6.89528V26.7093H8.41696V25.1875H9.93871V23.6658H8.41696Z" fill="#D80027"/>
<path d="M28.1045 23.6658V22.144H26.5828V23.6658H25.061V25.1875H26.5828V26.7093H28.1045V25.1875H29.6262V23.6658H28.1045Z" fill="#D80027"/>
</svg>
