<svg width="24" height="24" viewBox="0 0 24 24" fill="none" xmlns="http://www.w3.org/2000/svg">
<g clip-path="url(#clip0)">
<path d="M23.0704 16.5599C23.0775 16.5456 23.0837 16.5309 23.0887 16.5159C24.5106 13.2341 24.2565 9.21064 22.4097 6.13544C23.3956 4.95679 22.115 3.26889 20.7144 3.92197C20.4683 3.67047 20.2099 3.42942 19.9421 3.2015C20.4678 1.77266 18.7135 0.600527 17.621 1.66808C14.4456 0.06464 10.4961 0.0849464 7.33828 1.72234C6.21492 0.53187 4.32832 1.8083 5.00846 3.30195C4.61894 3.64256 4.25024 4.01051 3.91028 4.39961C3.61676 4.73558 4.14852 5.19606 4.44003 4.86244C4.7563 4.50049 5.09897 4.1581 5.46092 3.8408C6.16085 4.34564 7.17573 4.08846 7.55972 3.31785C8.82691 3.68261 10.037 4.20612 11.1647 4.87801C11.0703 5.21843 11.1088 5.59862 11.2708 5.91287C10.3427 6.71457 9.50691 7.62145 8.78114 8.61533C8.11113 8.41288 7.37261 8.75175 7.08124 9.38626C5.60367 9.39419 4.1215 9.55312 2.66631 9.86072C2.53781 9.62126 2.343 9.42284 2.10683 9.28994C2.38024 8.22375 2.81328 7.20951 3.39658 6.27172C3.629 5.89796 3.04232 5.50942 2.79926 5.90016C2.1791 6.89718 1.71848 7.97538 1.42716 9.10878C-0.257834 9.13738 -0.540714 11.4684 1.06338 11.9168C1.03975 15.2344 2.47412 18.4599 4.96142 20.657C4.44256 22.0586 6.12703 23.2147 7.23867 22.2262C10.4829 23.9512 14.583 23.9515 17.8274 22.2267C18.958 23.3449 20.7689 22.0957 20.132 20.6339C21.4139 19.4946 22.4098 18.1012 23.0704 16.5599ZM22.6273 15.7732C21.6536 14.806 20.5881 13.9285 19.4506 13.1582C19.6121 12.6521 19.4717 12.0828 19.0944 11.7092C20.051 10.1187 20.802 8.41325 21.3306 6.6317C21.5068 6.63231 21.6761 6.59981 21.8321 6.541C23.4519 9.27662 23.7481 12.8037 22.6273 15.7732ZM6.44204 19.7493C6.14603 16.8499 6.66545 13.9574 7.95103 11.3434C8.74968 11.5927 9.6129 11.0675 9.76799 10.2477C12.1932 10.5466 14.529 11.2587 16.7211 12.3675C16.6156 12.7773 16.7029 13.2292 16.954 13.57C14.4832 16.7003 11.2217 19.0558 7.48891 20.4058C7.26273 20.0477 6.88235 19.7971 6.44204 19.7493ZM17.3796 12.7239C17.3796 12.3254 17.7015 12.0011 18.0971 12.0011C19.049 12.0407 19.0488 13.4073 18.0971 13.4468C17.7015 13.4468 17.3796 13.1225 17.3796 12.7239ZM22.0513 5.20548C22.0513 5.60406 21.7294 5.9283 21.3337 5.9283C20.3818 5.88867 20.382 4.52216 21.3337 4.48267C21.7294 4.48267 22.0513 4.80691 22.0513 5.20548ZM20.177 4.3786C19.6908 5.06165 19.9164 6.04906 20.6493 6.45504C20.1373 8.17352 19.4113 9.81855 18.4878 11.353C18.2947 11.2974 18.0804 11.2836 17.8819 11.314C16.9166 9.2527 15.512 7.39602 13.7961 5.91297C13.9582 5.59852 13.9969 5.21899 13.9023 4.8781C14.9884 4.23102 16.1518 3.72107 17.3683 3.35856C17.7727 4.1392 18.8573 4.35961 19.5307 3.77523C19.7539 3.96723 19.97 4.16893 20.177 4.3786ZM11.8159 5.25993C11.8159 4.86136 12.1378 4.53712 12.5335 4.53712C13.4854 4.57674 13.4851 5.94321 12.5335 5.9827C12.1378 5.9827 11.8159 5.65846 11.8159 5.25993ZM18.6191 1.9594C19.0148 1.9594 19.3367 2.28364 19.3367 2.68222C19.2972 3.64111 17.9409 3.64088 17.9015 2.68222C17.9015 2.28364 18.2234 1.9594 18.6191 1.9594ZM6.28812 3.40499C5.89246 3.40499 5.57056 3.08074 5.57056 2.68217C5.61005 1.72323 6.96639 1.72356 7.00573 2.68217C7.00573 3.08074 6.68379 3.40499 6.28812 3.40499ZM7.70782 2.62824C7.70416 2.5306 7.69075 2.43554 7.66843 2.34381C10.6127 0.821222 14.291 0.794678 17.258 2.273C17.2198 2.40051 17.199 2.53534 17.1983 2.67495C15.9187 3.0535 14.6951 3.58821 13.5528 4.2676C13.0037 3.69964 12.0635 3.69945 11.5142 4.26755C10.3239 3.55951 9.04606 3.00913 7.70782 2.62824ZM11.7365 6.44008C12.2121 6.7647 12.8547 6.76475 13.3304 6.44013C14.9686 7.85458 16.3106 9.62515 17.2349 11.5913C17.1723 11.6395 17.1138 11.6928 17.0599 11.7505C14.7489 10.5783 12.2827 9.83305 9.72104 9.53319C9.65187 9.32384 9.53576 9.13588 9.38503 8.98202C10.0725 8.04807 10.8615 7.19507 11.7365 6.44008ZM8.37221 9.25833C8.76787 9.25833 9.08977 9.58257 9.08977 9.98115C9.05028 10.9401 7.69394 10.9398 7.6546 9.98115C7.65464 9.58257 7.97654 9.25833 8.37221 9.25833ZM0.696745 10.5348C0.696745 10.1362 1.01864 9.81194 1.41431 9.81194C2.36621 9.85157 2.36593 11.218 1.41431 11.2575C1.01869 11.2576 0.696745 10.9333 0.696745 10.5348ZM1.76678 11.9166C1.76678 11.9166 2.83513 11.6836 2.83513 10.544C2.83513 10.544 5.57652 10.1058 6.95579 10.0905C6.98168 10.4312 7.1272 10.7387 7.35038 10.9708C5.97969 13.7283 5.42682 16.7856 5.74506 19.8493C5.60803 19.9064 5.48188 19.9845 5.37036 20.0794C3.07567 18.0237 1.76678 14.5794 1.76678 11.9166ZM6.28812 21.8898C5.89246 21.8898 5.57056 21.5656 5.57056 21.167C5.57056 20.7684 5.89246 20.4442 6.28812 20.4442C6.67849 20.4442 7.00573 20.7823 7.00573 21.167C7.00573 21.5656 6.68379 21.8898 6.28812 21.8898ZM12.5335 22.822C10.8264 22.822 9.13831 22.4131 7.62955 21.6369C7.6908 21.4614 7.71781 21.2614 7.7059 21.0752C11.5673 19.6833 14.9415 17.251 17.4977 14.0166C17.7077 14.1151 17.9407 14.1603 18.1722 14.1482C18.3285 14.7282 18.452 15.3198 18.5395 15.9115C18.6065 16.3644 19.3026 16.2632 19.2354 15.8086C19.1425 15.1804 19.0109 14.5521 18.8439 13.9367C18.928 13.8843 19.0061 13.8233 19.0773 13.7551C20.2511 14.5519 21.3453 15.4666 22.3367 16.479C21.7219 17.8381 20.827 19.0687 19.6901 20.0856C19.5777 20.0012 19.4524 19.9332 19.3178 19.8849C19.3869 19.2311 19.417 18.5709 19.4069 17.9179C19.3998 17.4584 18.6964 17.4692 18.7036 17.9287C18.7133 18.5564 18.6842 19.1911 18.6175 19.8196C17.7879 19.9515 17.2454 20.8117 17.4739 21.6179C15.9557 22.4064 14.2545 22.822 12.5335 22.822ZM18.8406 21.951C18.4449 21.951 18.123 21.6267 18.123 21.2282C18.1625 20.2692 19.5189 20.2695 19.5582 21.2282C19.5582 21.6267 19.2363 21.951 18.8406 21.951Z" fill="#496E2D"/>
</g>
<defs>
<clipPath id="clip0">
<rect width="24" height="24" fill="white"/>
</clipPath>
</defs>
</svg>
