<svg width="24" height="24" viewBox="0 0 24 24" fill="none" xmlns="http://www.w3.org/2000/svg">
<g clip-path="url(#clip0)">
<path d="M23.064 11.7439C22.988 11.6679 22.904 11.6079 22.824 11.5359C23.8937 10.4192 23.8556 8.6467 22.7389 7.57701C21.6221 6.50733 19.8497 6.54539 18.78 7.66214C17.7427 8.74505 17.7427 10.453 18.78 11.5359C18.3304 11.9057 17.9902 12.3911 17.796 12.9399C17.1404 12.047 16.2876 11.3174 15.304 10.8079C17.5216 8.98312 17.8402 5.70609 16.0154 3.48844C14.1907 1.27078 10.9136 0.952265 8.69597 2.77701C6.47832 4.60176 6.1598 7.8788 7.98455 10.0965C8.19816 10.356 8.43638 10.5943 8.69597 10.8079C7.71652 11.315 6.86668 12.0403 6.21197 12.9279C6.05522 12.4771 5.79966 12.0671 5.46399 11.7279C5.38801 11.6519 5.30799 11.5839 5.22399 11.5199C6.29368 10.4032 6.25557 8.63072 5.13886 7.56103C4.02216 6.49134 2.24968 6.52941 1.17999 7.64615C0.142646 8.72906 0.142646 10.437 1.17999 11.5199C0.431724 12.1289 -0.00182237 13.0431 5.75829e-06 14.0079V18.0079C5.75829e-06 18.2288 0.179068 18.4079 0.39999 18.4079H4.80001V22.0079C4.80001 22.2288 4.97907 22.4078 5.19999 22.4078H18.8C19.0209 22.4078 19.2 22.2288 19.2 22.0079V18.4079H23.6C23.8209 18.4079 24 18.2288 24 18.0079V14.0079C24.0007 13.1589 23.664 12.3445 23.064 11.7439ZM19.1527 8.46314C19.5283 7.92506 20.1438 7.60547 20.8 7.60786C21.9046 7.60603 22.8015 8.50003 22.8033 9.60459C22.8044 10.2593 22.4849 10.8731 21.948 11.2479C21.4353 11.5995 20.7903 11.6982 20.196 11.5159C20.0986 11.486 20.0036 11.4486 19.912 11.4039C19.8198 11.3593 19.7315 11.3071 19.648 11.2479C18.7423 10.6157 18.5205 9.3689 19.1527 8.46314ZM7.59999 6.80789C7.59127 4.37784 9.55412 2.40084 11.9842 2.39212C14.4142 2.38341 16.3912 4.34625 16.3999 6.7763C16.4053 8.2703 15.6522 9.66497 14.4 10.4799L14.28 10.5479C13.0565 11.2923 11.5486 11.3996 10.232 10.8359C10.095 10.7753 9.96146 10.7073 9.83204 10.6319C9.77204 10.5959 9.70805 10.5719 9.64805 10.5319C9.61313 10.5147 9.57971 10.4946 9.54807 10.4719C8.32735 9.65264 7.59647 8.27794 7.59999 6.80789ZM1.55269 8.46314C1.92826 7.92506 2.54382 7.60547 3.19997 7.60786C4.30454 7.60603 5.20144 8.50003 5.20327 9.60459C5.20435 10.2593 4.8849 10.8731 4.34799 11.2479C3.83532 11.5995 3.19032 11.6982 2.59599 11.5159C2.49854 11.486 2.40357 11.4486 2.31197 11.4039C2.21977 11.3593 2.13146 11.3071 2.04797 11.2479C1.14226 10.6157 0.92049 9.3689 1.55269 8.46314ZM5.43202 14.2679C5.40001 14.3399 5.37202 14.4119 5.34404 14.4839C5.31605 14.5559 5.29205 14.6039 5.26805 14.6678C5.24405 14.7318 5.20004 14.8079 5.20004 14.8919C5.20004 14.9759 5.15602 15.0158 5.13605 15.0758C5.11604 15.1358 5.09204 15.2279 5.07207 15.3078C5.05205 15.3878 5.03607 15.4318 5.02008 15.4958C5.0041 15.5598 4.98408 15.6518 4.9681 15.7319C4.95212 15.8119 4.94012 15.8558 4.92812 15.9199C4.91612 15.9839 4.90013 16.0879 4.88813 16.1719C4.87613 16.2559 4.88813 16.2879 4.86015 16.3479C4.83216 16.4079 4.86015 16.5399 4.83216 16.6359C4.80418 16.7319 4.83216 16.7319 4.83216 16.7799C4.83216 16.9239 4.83216 17.0679 4.83216 17.2119V17.6119L0.800162 17.6079V14.0079C0.800021 13.2262 1.1806 12.4934 1.82016 12.0439L1.89615 12.0799L2.04816 12.1519L2.24016 12.2279L2.44815 12.2959L2.57213 12.3239C2.77763 12.3755 2.98829 12.4037 3.20011 12.4079C3.41312 12.4053 3.62518 12.3785 3.83213 12.3278L3.95612 12.2999L4.1641 12.2318L4.3561 12.1559L4.50811 12.0839L4.5841 12.0479C5.19408 12.4775 5.5696 13.1664 5.60012 13.9118C5.5681 13.9718 5.5441 14.0318 5.51612 14.0879L5.43202 14.2679ZM18.4 21.6079H5.60002V17.2079C5.59585 16.1569 5.85436 15.1215 6.35204 14.1959V14.1638C7.03515 12.9016 8.12274 11.9056 9.44002 11.3358H9.47602C9.65818 11.4382 9.84657 11.529 10.04 11.6078C10.6608 11.8685 11.3268 12.0044 12 12.0078C12.877 12.0108 13.7398 11.7862 14.504 11.3558L14.544 11.3358C15.8598 11.9063 16.9459 12.9022 17.628 14.1638V14.1959C18.1326 15.1197 18.398 16.1552 18.4 17.2079V21.6079ZM23.2 17.6079H19.2V17.2079C19.2 17.0639 19.2 16.9199 19.2 16.7759C19.2 16.7279 19.2 16.6839 19.2 16.6359C19.2 16.5879 19.2 16.4399 19.172 16.3439C19.144 16.2479 19.172 16.2279 19.148 16.1719C19.124 16.1159 19.124 15.9999 19.108 15.9159C19.0921 15.8319 19.084 15.792 19.0681 15.732C19.0521 15.672 19.036 15.572 19.0161 15.492C18.9961 15.4119 18.9801 15.368 18.9641 15.3039C18.9481 15.24 18.9241 15.1519 18.9001 15.0759C18.8761 15 18.8561 14.952 18.8361 14.8879C18.8161 14.8239 18.7881 14.7399 18.7601 14.6679C18.7321 14.5959 18.7081 14.544 18.6841 14.4799C18.6601 14.4159 18.6281 14.3399 18.5962 14.2679C18.5642 14.1959 18.5362 14.1439 18.5082 14.0839C18.4802 14.0239 18.4562 13.9679 18.4242 13.9119C18.4535 13.165 18.8291 12.4744 19.4402 12.0439L19.5162 12.0799L19.6682 12.1519L19.8602 12.2279L20.0682 12.2959L20.1922 12.3239C20.6069 12.4296 21.0414 12.4296 21.4561 12.3239L21.5801 12.2959L21.7841 12.2279L21.9761 12.1519L22.1281 12.0799L22.2041 12.0439C22.8346 12.4987 23.2058 13.2306 23.2001 14.0079V17.6079H23.2Z" fill="#496E2D"/>
</g>
<defs>
<clipPath id="clip0">
<rect width="24" height="24" fill="white"/>
</clipPath>
</defs>
</svg>
