<svg width="24" height="24" viewBox="0 0 24 24" fill="none" xmlns="http://www.w3.org/2000/svg">
<g clip-path="url(#clip0)">
<path d="M22 3.59985H2.00002C0.895453 3.59985 0 4.49531 0 5.59987V18.3999C0 19.5044 0.895453 20.3999 2.00002 20.3999H22C23.1046 20.3999 24 19.5044 24 18.3998V5.59987C24 4.49531 23.1046 3.59985 22 3.59985ZM23.2 18.3998C23.2 19.0626 22.6628 19.5998 22 19.5998H2.00002C1.3373 19.5998 0.800016 19.0626 0.800016 18.3998V5.59987C0.800016 4.93715 1.3373 4.39987 2.00002 4.39987H22C22.6628 4.39987 23.2 4.9371 23.2 5.59987V18.3998H23.2Z" fill="#496E2D"/>
<path d="M20.4002 5.6001H13.2002C12.3165 5.6001 11.6002 6.31644 11.6002 7.20008V16.8001C11.5975 16.8441 11.5975 16.8881 11.6002 16.9321C11.5994 16.9468 11.5994 16.9614 11.6002 16.9761C11.6903 17.7904 12.3809 18.4051 13.2002 18.4001H20.4002C21.2194 18.4051 21.9101 17.7904 22.0001 16.9761V16.9521C22.0001 16.9041 22.0001 16.8521 22.0001 16.8041V7.20008C22.0001 6.31644 21.2838 5.6001 20.4002 5.6001ZM21.1762 16.9841C21.1762 17.0081 21.1762 17.0321 21.1762 17.0561C21.1762 17.0801 21.1762 17.1001 21.1482 17.1241C21.1202 17.1481 21.1482 17.1681 21.1202 17.1881L21.0802 17.2481L21.0442 17.3041L20.9922 17.3601L20.9482 17.4081L20.8882 17.4521L20.8362 17.4881L20.7642 17.5241L20.7123 17.5481L20.6202 17.5721H20.5722C20.5161 17.5877 20.4584 17.5971 20.4003 17.6001H13.2002C13.1509 17.6047 13.1014 17.6047 13.0522 17.6001L12.9362 17.5681C12.6481 17.4703 12.4403 17.2176 12.4002 16.9161C12.5081 15.2373 13.5639 13.7669 15.1202 13.1281C15.1642 13.1561 15.2122 13.1721 15.2562 13.2001L15.4442 13.2961L15.6402 13.3761C15.7281 13.4121 15.8162 13.4441 15.9042 13.4681H15.9842C16.515 13.6187 17.0773 13.6187 17.6082 13.4681H17.6721C17.7681 13.4401 17.8602 13.4081 17.9521 13.3721L18.1361 13.2961L18.3321 13.1921C18.3761 13.1681 18.4201 13.1481 18.4641 13.1241C20.0266 13.7582 21.0893 15.2295 21.2001 16.9121C21.2002 16.9361 21.2002 16.9601 21.1762 16.9841ZM14.4002 10.4001C14.3991 9.07461 15.4728 7.99925 16.7982 7.99818C18.1237 7.9971 19.1991 9.07077 19.2002 10.3963C19.2008 11.175 18.8235 11.9057 18.1882 12.3561C17.5728 12.7861 16.793 12.9072 16.0762 12.6841C15.8387 12.6111 15.6145 12.5004 15.4122 12.3561C14.7779 11.9065 14.4008 11.1775 14.4002 10.4001ZM21.2002 14.4321C20.7049 13.6297 19.9957 12.9815 19.1522 12.5601C20.3517 11.2622 20.272 9.23769 18.9741 8.03811C17.6763 6.83858 15.6517 6.91827 14.4522 8.21614C13.3188 9.44235 13.3188 11.3339 14.4522 12.5601C13.6102 12.9853 12.9007 13.6326 12.4002 14.4321V7.20008C12.4002 6.75824 12.7583 6.40007 13.2002 6.40007H20.4002C20.842 6.40007 21.2002 6.75824 21.2002 7.20008V14.4321Z" fill="#496E2D"/>
<path d="M9.99997 6.80005H2.39998C2.17906 6.80005 2 6.97916 2 7.20003C2 7.42096 2.17906 7.60002 2.39998 7.60002H9.99997C10.2209 7.60002 10.4 7.42091 10.4 7.20003C10.4 6.97911 10.2209 6.80005 9.99997 6.80005Z" fill="#496E2D"/>
<path d="M9.99997 8.40015H2.39998C2.17906 8.40015 2 8.57921 2 8.80013C2 9.02105 2.17906 9.20011 2.39998 9.20011H9.99997C10.2209 9.20011 10.4 9.02105 10.4 8.80013C10.4 8.57921 10.2209 8.40015 9.99997 8.40015Z" fill="#496E2D"/>
<path d="M9.99997 10H2.39998C2.17906 10 2 10.1791 2 10.4C2 10.6209 2.17906 10.8 2.39998 10.8H9.99997C10.2209 10.8 10.4 10.6209 10.4 10.4C10.4 10.1791 10.2209 10 9.99997 10Z" fill="#496E2D"/>
</g>
<defs>
<clipPath id="clip0">
<rect width="24" height="24" fill="white"/>
</clipPath>
</defs>
</svg>
