<svg width="21" height="20" viewBox="0 0 21 20" fill="none" xmlns="http://www.w3.org/2000/svg">
<g clip-path="url(#clip0)">
<path d="M14.994 0H5.82785C2.84466 0 0.417725 2.42858 0.417725 5.41381V14.5863C0.417725 17.5714 2.84466 20 5.82785 20H14.9941C17.9771 20 20.4041 17.5714 20.4041 14.5863V5.41381C20.4041 2.42858 17.9771 0 14.994 0V0ZM19.2324 14.5863C19.2324 16.9249 17.3311 18.8275 14.994 18.8275H5.82785C3.49073 18.8275 1.58941 16.9249 1.58941 14.5863V5.41381C1.58941 3.0751 3.49073 1.17248 5.82785 1.17248H14.9941C17.3311 1.17248 19.2324 3.0751 19.2324 5.41381V14.5863Z" fill="white"/>
<path d="M10.4109 4.53137C7.39753 4.53137 4.94604 6.98452 4.94604 9.99996C4.94604 13.0154 7.39753 15.4685 10.4109 15.4685C13.4243 15.4685 15.8758 13.0154 15.8758 9.99996C15.8758 6.98452 13.4243 4.53137 10.4109 4.53137ZM10.4109 14.2961C8.04375 14.2961 6.11773 12.3689 6.11773 9.99996C6.11773 7.63119 8.04375 5.70385 10.4109 5.70385C12.7782 5.70385 14.7041 7.63119 14.7041 9.99996C14.7041 12.3689 12.7782 14.2961 10.4109 14.2961Z" fill="white"/>
<path d="M16.0064 2.58936C15.1159 2.58936 14.3916 3.3143 14.3916 4.20526C14.3916 5.09637 15.1159 5.82131 16.0064 5.82131C16.8969 5.82131 17.6214 5.09637 17.6214 4.20526C17.6214 3.31415 16.8969 2.58936 16.0064 2.58936ZM16.0064 4.64868C15.7621 4.64868 15.5633 4.4497 15.5633 4.20526C15.5633 3.96066 15.7621 3.76184 16.0064 3.76184C16.2508 3.76184 16.4497 3.96066 16.4497 4.20526C16.4497 4.4497 16.2508 4.64868 16.0064 4.64868Z" fill="white"/>
</g>
<defs>
<clipPath id="clip0">
<rect width="19.9864" height="20" fill="white" transform="translate(0.417725)"/>
</clipPath>
</defs>
</svg>
