<svg width="35" height="35" viewBox="0 0 35 35" fill="none" xmlns="http://www.w3.org/2000/svg">
<path d="M35 5.83325H0V29.1668H35V5.83325Z" fill="#338AF3"/>
<path d="M24.0625 18.1678H10.9375C10.9375 19.0739 11.7266 19.8083 12.6327 19.8083H12.5781C12.5781 20.7144 13.3126 21.449 14.2188 21.449C14.2188 22.3551 14.9533 23.0897 15.8595 23.0897H19.1408C20.0469 23.0897 20.7815 22.3553 20.7815 21.449C21.6876 21.449 22.4221 20.7146 22.4221 19.8083H22.3675C23.2732 19.8083 24.0625 19.0739 24.0625 18.1678Z" fill="#FFDA44"/>
<path d="M22.0431 16.0223C22.0431 18.5315 20.009 20.5656 17.4998 20.5656C14.9906 20.5656 12.9565 18.5315 12.9565 16.0223" fill="#338AF3"/>
<path d="M22.0034 15.597L20.1632 16.3421L21.1431 17.8762L19.1448 17.5471L18.8916 19.2844L17.4997 18.0066L16.1078 19.2844L15.8547 17.5471L13.8564 17.876L14.8363 16.342L12.9961 15.597L14.8363 14.852L13.8564 13.3181L15.8546 13.6471L16.1079 11.9096L17.4997 13.1875L18.8917 11.9096L19.1448 13.6471L21.1432 13.3181L20.1632 14.8521L22.0034 15.597Z" fill="#FFDA44"/>
</svg>
