<svg width="35" height="35" viewBox="0 0 35 35" fill="none" xmlns="http://www.w3.org/2000/svg">
<path d="M35 5.83325H0V29.1668H35V5.83325Z" fill="#D80027"/>
<path d="M17.4997 29.1661C23.9429 29.1661 29.1661 23.9429 29.1661 17.4997C29.1661 11.0565 23.9429 5.83325 17.4997 5.83325C11.0565 5.83325 5.83325 11.0565 5.83325 17.4997C5.83325 23.9429 11.0565 29.1661 17.4997 29.1661Z" fill="#D80027"/>
<path d="M23.2057 17.4997L20.8743 18.5963L22.1158 20.8543L19.5841 20.3699L19.2634 22.9272L17.5 21.0465L15.7367 22.9272L15.4159 20.3699L12.8844 20.8541L14.1258 18.5962L11.7944 17.4997L14.1259 16.4032L12.8844 14.1451L15.4158 14.6295L15.7368 12.0722L17.5 13.953L19.2635 12.0722L19.5841 14.6295L22.1159 14.1451L20.8744 16.4033L23.2057 17.4997Z" fill="#FFDA44"/>
<path d="M17.4999 21.0504C19.461 21.0504 21.0507 19.4607 21.0507 17.4997C21.0507 15.5387 19.461 13.949 17.4999 13.949C15.5389 13.949 13.9492 15.5387 13.9492 17.4997C13.9492 19.4607 15.5389 21.0504 17.4999 21.0504Z" fill="#D80027"/>
<path d="M15.725 17.4997C15.6394 17.4997 15.5549 17.504 15.4717 17.5124C15.4748 18.0043 15.6527 18.4543 15.9466 18.804C16.1034 18.3821 16.3375 17.9974 16.6326 17.6683C16.3505 17.5598 16.0447 17.4997 15.725 17.4997Z" fill="#FFDA44"/>
<path d="M16.8176 19.4107C17.0309 19.4869 17.2606 19.5287 17.5001 19.5287C17.7395 19.5287 17.9692 19.4869 18.1825 19.4107C18.0662 18.9544 17.8262 18.5471 17.5001 18.227C17.1739 18.5471 16.9339 18.9544 16.8176 19.4107Z" fill="#FFDA44"/>
<path d="M19.2575 16.4856C18.9067 15.8791 18.2514 15.4708 17.5005 15.4708C16.7496 15.4708 16.0943 15.8791 15.7434 16.4856C16.383 16.4888 16.9827 16.6627 17.5005 16.963C18.0183 16.6627 18.6179 16.4888 19.2575 16.4856Z" fill="#FFDA44"/>
<path d="M18.3682 17.6683C18.6634 17.9974 18.8974 18.3821 19.0541 18.804C19.348 18.4543 19.526 18.0042 19.529 17.5124C19.4456 17.5041 19.3612 17.4997 19.2758 17.4997C18.956 17.4997 18.6501 17.5598 18.3682 17.6683Z" fill="#FFDA44"/>
</svg>
