<svg width="21" height="35" viewBox="0 0 21 35" fill="none" xmlns="http://www.w3.org/2000/svg">
<path d="M16.9866 3.14645L15.2189 1.37868L16.9866 3.14645ZM17.6937 3.85355L15.926 2.08579L17.6937 3.85355ZM17.185 30.7322L18.9527 28.9645L17.185 30.7322ZM16.4778 31.4393L14.7101 33.2071L16.4778 31.4393ZM18.2456 29.6716L5.06066 16.4866L1.52513 20.0222L14.7101 33.2071L18.2456 29.6716ZM7.88909 24.9719L15.4172 32.5L18.9527 28.9645L11.4246 21.4364L7.88909 24.9719ZM15.926 2.08579L7.88909 10.1227L11.4246 13.6582L19.4615 5.62132L15.926 2.08579ZM5.06066 18.6079L18.7544 4.91421L15.2189 1.37868L1.52513 15.0724L5.06066 18.6079ZM19.4615 1.37868C18.2899 0.207105 16.3904 0.207109 15.2189 1.37868L18.7544 4.91421C17.9733 5.69526 16.707 5.69526 15.926 4.91421L19.4615 1.37868ZM19.4615 5.62132C20.6331 4.44975 20.6331 2.55025 19.4615 1.37868L15.926 4.91421C15.1449 4.13316 15.1449 2.86683 15.926 2.08579L19.4615 5.62132ZM18.9527 33.2071C20.1243 32.0355 20.1243 30.136 18.9527 28.9645L15.4172 32.5C14.6361 31.719 14.6361 30.4526 15.4172 29.6716L18.9527 33.2071ZM14.7101 33.2071C15.8817 34.3787 17.7811 34.3787 18.9527 33.2071L15.4172 29.6716C16.1982 28.8905 17.4646 28.8905 18.2456 29.6716L14.7101 33.2071ZM11.4246 21.4364C9.27674 19.2885 9.27674 15.8061 11.4246 13.6582L7.88909 10.1227C3.78858 14.2232 3.78858 20.8714 7.88909 24.9719L11.4246 21.4364ZM1.52513 15.0724C0.158288 16.4392 0.158294 18.6553 1.52513 20.0222L5.06066 16.4866C5.64644 17.0724 5.64645 18.0222 5.06066 18.6079L1.52513 15.0724Z" fill="#6DA544"/>
</svg>
