<svg width="24" height="24" viewBox="0 0 24 24" fill="none" xmlns="http://www.w3.org/2000/svg">
<path d="M23.66 2.88401C23.2883 2.33136 22.666 1.99991 22 2H2.00001C0.895452 2 0 2.8954 0 4.00001V20C0 21.1045 0.895452 22 2.00001 22H22H22.16H22.208C23.2306 21.8931 24.0055 21.0282 24 20V4.00001C24 3.60247 23.8817 3.21392 23.66 2.88401ZM2.00001 2.80001H22C22.2841 2.79983 22.5591 2.90047 22.776 3.08403L21.224 4.56401L14.68 10.8L12.256 13.112C12.1145 13.2167 11.9214 13.2167 11.7799 13.112L9.31995 10.8L1.2 3.08801C1.42256 2.89756 1.70714 2.79514 2.00001 2.80001ZM0.800014 3.80801L8.46402 11.08L0.800014 18.4V4.00001C0.794858 3.93612 0.794858 3.8719 0.800014 3.80801ZM23.1999 20C23.2048 20.6076 22.7547 21.123 22.152 21.2H2.00001C1.33729 21.2 0.800014 20.6627 0.800014 20V19.492L9.044 11.632L11.248 13.728C11.3019 13.7716 11.3594 13.8104 11.42 13.844C11.5964 13.9457 11.7964 13.9995 12 14C12.291 14.0019 12.5736 13.9029 12.8 13.72L14.976 11.648L23.1999 19.484V20ZM23.1999 4.00001V18.38L15.536 11.092L23.1999 3.8C23.2054 3.86656 23.2054 3.93345 23.1999 4.00001Z" fill="#496E2D"/>
</svg>
