<svg width="30" height="30" viewBox="0 0 30 30" fill="none" xmlns="http://www.w3.org/2000/svg">
<path d="M29.575 4.10502C29.1104 3.4142 28.3325 2.99988 27.5 3H2.50002C1.11931 3 0 4.11926 0 5.50002V25.5C0 26.8807 1.11931 28 2.50002 28H27.5H27.7H27.76C29.0382 27.8663 30.0069 26.7852 29.9999 25.5V5.50002C30.0001 5.00308 29.8521 4.5174 29.575 4.10502ZM2.50002 4.00002H27.5C27.8551 3.99978 28.1989 4.12558 28.47 4.35504L26.53 6.20501L18.3499 14L15.32 16.89C15.1432 17.0208 14.9017 17.0208 14.7249 16.89L11.6499 14L1.5 4.36002C1.7782 4.12195 2.13392 3.99392 2.50002 4.00002ZM1.00002 5.26002L10.58 14.35L1.00002 23.5V5.50002C0.993572 5.42015 0.993572 5.33988 1.00002 5.26002ZM28.9999 25.5C29.006 26.2595 28.4434 26.9037 27.6899 27H2.50002C1.67162 27 1.00002 26.3284 1.00002 25.5V24.865L11.305 15.04L14.06 17.66C14.1273 17.7144 14.1993 17.763 14.275 17.805C14.4955 17.9321 14.7454 17.9993 15 18C15.3637 18.0023 15.717 17.8787 16 17.6501L18.72 15.06L28.9999 24.855V25.5ZM28.9999 5.50002V23.475L19.42 14.365L28.9999 5.25C29.0067 5.3332 29.0067 5.41681 28.9999 5.50002Z" fill="#496E2D"/>
</svg>
