<svg width="24" height="24" viewBox="0 0 24 24" fill="none" xmlns="http://www.w3.org/2000/svg">
<path d="M17.3516 23.3514H6.64886C6.3048 23.3514 5.97482 23.2147 5.73153 22.9714C5.48824 22.7281 5.35156 22.3982 5.35156 22.0541V1.94598C5.35156 1.60191 5.48824 1.27194 5.73153 1.02865C5.97482 0.785361 6.3048 0.648682 6.64886 0.648682H17.3516C17.6956 0.648682 18.0256 0.785361 18.2689 1.02865C18.5122 1.27194 18.6489 1.60191 18.6489 1.94598V22.0541C18.6489 22.3982 18.5122 22.7281 18.2689 22.9714C18.0256 23.2147 17.6956 23.3514 17.3516 23.3514ZM6.64886 1.29733C6.47683 1.29733 6.31184 1.36567 6.1902 1.48732C6.06855 1.60896 6.00021 1.77395 6.00021 1.94598V22.0541C6.00021 22.2261 6.06855 22.3911 6.1902 22.5128C6.31184 22.6344 6.47683 22.7027 6.64886 22.7027H17.3516C17.5236 22.7027 17.6886 22.6344 17.8102 22.5128C17.9319 22.3911 18.0002 22.2261 18.0002 22.0541V1.94598C18.0002 1.77395 17.9319 1.60896 17.8102 1.48732C17.6886 1.36567 17.5236 1.29733 17.3516 1.29733H6.64886Z" fill="#496E2D"/>
<path d="M18.3245 4.21628H5.67589C5.58987 4.21628 5.50738 4.18211 5.44655 4.12128C5.38573 4.06046 5.35156 3.97797 5.35156 3.89195C5.35156 3.80594 5.38573 3.72344 5.44655 3.66262C5.50738 3.6018 5.58987 3.56763 5.67589 3.56763H18.3245C18.4106 3.56763 18.493 3.6018 18.5539 3.66262C18.6147 3.72344 18.6489 3.80594 18.6489 3.89195C18.6489 3.97797 18.6147 4.06046 18.5539 4.12128C18.493 4.18211 18.4106 4.21628 18.3245 4.21628Z" fill="#496E2D"/>
<path d="M18.3245 19.135H5.67589C5.58987 19.135 5.50738 19.1008 5.44655 19.04C5.38573 18.9792 5.35156 18.8967 5.35156 18.8107C5.35156 18.7246 5.38573 18.6421 5.44655 18.5813C5.50738 18.5205 5.58987 18.4863 5.67589 18.4863H18.3245C18.4106 18.4863 18.493 18.5205 18.5539 18.5813C18.6147 18.6421 18.6489 18.7246 18.6489 18.8107C18.6489 18.8967 18.6147 18.9792 18.5539 19.04C18.493 19.1008 18.4106 19.135 18.3245 19.135Z" fill="#496E2D"/>
<path d="M12.0003 22.1151C11.7637 22.1151 11.5325 22.045 11.3358 21.9135C11.1391 21.7821 10.9858 21.5953 10.8952 21.3767C10.8047 21.1582 10.781 20.9177 10.8272 20.6857C10.8733 20.4536 10.9873 20.2405 11.1545 20.0732C11.3218 19.906 11.5349 19.792 11.767 19.7459C11.999 19.6997 12.2395 19.7234 12.458 19.8139C12.6766 19.9045 12.8634 20.0578 12.9948 20.2545C13.1263 20.4512 13.1964 20.6824 13.1964 20.919C13.1961 21.2361 13.0699 21.5402 12.8457 21.7644C12.6215 21.9886 12.3174 22.1148 12.0003 22.1151ZM12.0003 20.3719C11.892 20.3719 11.7862 20.404 11.6961 20.4642C11.6061 20.5243 11.5359 20.6098 11.4945 20.7099C11.4531 20.81 11.4422 20.92 11.4634 21.0263C11.4845 21.1325 11.5367 21.23 11.6133 21.3066C11.6899 21.3831 11.7875 21.4352 11.8937 21.4563C11.9999 21.4774 12.11 21.4665 12.21 21.425C12.3101 21.3835 12.3955 21.3133 12.4557 21.2232C12.5158 21.1332 12.5478 21.0273 12.5478 20.919C12.5476 20.7739 12.4899 20.6348 12.3872 20.5322C12.2846 20.4296 12.1454 20.372 12.0003 20.3719Z" fill="#496E2D"/>
<path d="M13.2973 2.83786H10.7027C10.6167 2.83786 10.5342 2.80369 10.4734 2.74287C10.4126 2.68204 10.3784 2.59955 10.3784 2.51353C10.3784 2.42752 10.4126 2.34502 10.4734 2.2842C10.5342 2.22338 10.6167 2.18921 10.7027 2.18921H13.2973C13.3833 2.18921 13.4658 2.22338 13.5267 2.2842C13.5875 2.34502 13.6216 2.42752 13.6216 2.51353C13.6216 2.59955 13.5875 2.68204 13.5267 2.74287C13.4658 2.80369 13.3833 2.83786 13.2973 2.83786Z" fill="#496E2D"/>
</svg>
