<svg width="86" height="86" viewBox="0 0 86 86" fill="none" xmlns="http://www.w3.org/2000/svg">
<g clip-path="url(#clip0)">
<path d="M7.71511 56.1547C8.15771 56.1547 8.58653 56.0947 8.99486 55.9844L14.3058 65.1835C13.3872 66.0757 12.8148 67.3224 12.8148 68.701C12.8148 71.4063 15.0158 73.6074 17.7211 73.6074C19.9911 73.6074 21.9052 72.0576 22.4627 69.9608H24.9281C25.624 69.9608 26.1879 69.3968 26.1879 68.701C26.1879 68.0053 25.624 67.4413 24.9281 67.4413H22.4635C21.7677 64.8369 19.0956 63.2822 16.5017 63.9482L11.1756 54.7227C12.0705 53.8312 12.6213 52.6005 12.6213 51.2483C12.6213 49.8964 12.0707 48.6656 11.1756 47.7739L16.5017 38.5486C16.9362 38.6601 17.4536 38.7216 17.9711 38.6957C20.1777 38.5866 21.9462 37.0248 22.4651 35.0552L33.2014 35.0554C33.9018 37.677 36.6038 39.2401 39.2236 38.5316L44.5594 47.7737C43.6645 48.6653 43.1137 49.896 43.1137 51.2482C43.1137 52.6001 43.6643 53.8308 44.5594 54.7226L39.2236 63.9649C38.8015 63.8506 38.354 63.7945 37.9438 63.7945C35.692 63.7945 33.7658 65.3288 33.2014 67.4411H30.807C30.1111 67.4411 29.5473 68.0052 29.5473 68.7009C29.5473 69.3966 30.1111 69.9606 30.807 69.9606H33.2023C33.7599 72.0574 35.6739 73.6072 37.9438 73.6072C38.3864 73.6072 38.8152 73.5473 39.2234 73.4369L41.3623 77.1414C40.4699 78.0303 39.9166 79.2597 39.9166 80.6159C39.9166 83.3212 42.1177 85.5222 44.823 85.5222C47.5283 85.5222 49.7293 83.3212 49.7293 80.6159C49.7293 77.9106 47.5283 75.7095 44.823 75.7095C44.3802 75.7095 43.9515 75.7695 43.5432 75.8798L41.4045 72.1755C42.2969 71.2866 42.8502 70.0572 42.8502 68.701C42.8502 67.3449 42.2969 66.1155 41.4045 65.2266L46.7405 55.9844C47.1486 56.0947 47.5775 56.1547 48.0202 56.1547C50.2901 56.1547 52.2043 54.6048 52.7618 52.5081H63.4201C63.9777 54.6048 65.8917 56.1547 68.1616 56.1547C70.8669 56.1547 73.068 53.9536 73.068 51.2483C73.068 49.9074 72.5268 48.691 71.652 47.8045L72.8295 45.7652C73.1773 45.1627 72.9709 44.3922 72.3684 44.0443C71.7655 43.6963 70.9952 43.9029 70.6475 44.5054L69.482 46.5241C69.0377 46.3998 68.5805 46.3421 68.1616 46.3421C65.9357 46.3421 63.9908 47.8493 63.4192 49.9887H52.7626C52.188 47.8377 50.2335 46.3421 48.0202 46.3421C47.6072 46.3421 47.1601 46.3991 46.7405 46.5125L45.5566 44.4621L41.4046 37.2704C42.3948 36.2839 42.9143 34.9359 42.844 33.5505C42.7818 32.2945 42.2452 31.1612 41.4098 30.3267L46.7643 21.0863C49.4135 21.7884 52.0822 20.1717 52.7626 17.6028H63.4192C64.1057 20.1885 66.8053 21.817 69.4824 21.0678L74.8249 30.3215C73.8628 31.2798 73.313 32.6156 73.3854 34.0417C73.4479 35.3001 73.9868 36.4352 74.8247 37.2702L73.5885 39.4118C73.2406 40.0143 73.4471 40.7848 74.0496 41.1326C74.6521 41.4805 75.4227 41.2739 75.7704 40.6715L77.0056 38.5318C77.414 38.6423 77.8428 38.7023 78.2856 38.7023C80.9909 38.7023 83.1919 36.5012 83.1919 33.7959C83.1919 31.0906 80.9909 28.8896 78.2856 28.8896C77.843 28.8896 77.4141 28.9496 77.0058 29.0599L71.6522 19.7872C72.5269 18.9007 73.068 17.6843 73.068 16.3435C73.068 13.6383 70.8669 11.4372 68.1616 11.4372C65.8919 11.4372 63.9779 12.9867 63.4201 15.0835L52.7616 15.0836C52.204 12.9869 50.29 11.4372 48.0201 11.4372C47.5889 11.4372 47.1706 11.4936 46.7721 11.5986L44.6385 7.90298C45.5309 7.0141 46.0841 5.78474 46.0841 4.42856C46.0841 1.72327 43.8832 -0.477783 41.1779 -0.477783C38.4726 -0.477783 36.2715 1.72327 36.2715 4.42856C36.2715 7.13386 38.4726 9.33491 41.1779 9.33491C41.6205 9.33491 42.0493 9.27495 42.4576 9.16459L44.5833 12.8465C43.6771 13.7372 43.1137 14.9756 43.1137 16.3435C43.1137 17.7086 43.6746 18.9447 44.5772 19.8349L39.2306 29.0621C38.8203 28.9504 38.3891 28.8896 37.9437 28.8896C35.6737 28.8896 33.7597 30.4393 33.2021 32.536L22.4625 32.5362C21.9049 30.4394 19.9907 28.8896 17.721 28.8896C15.0157 28.8896 12.8146 31.0906 12.8146 33.7959C12.8146 35.1746 13.3871 36.4214 14.3057 37.3135L8.99469 46.5125C8.58636 46.4021 8.15771 46.3421 7.71494 46.3421C5.00965 46.3421 2.80859 48.5432 2.80859 51.2485C2.80859 53.9538 5.00965 56.1547 7.71511 56.1547ZM17.7211 66.3141C19.0372 66.3141 20.108 67.3848 20.108 68.7009C20.108 70.0169 19.0372 71.0877 17.7211 71.0877C16.4051 71.0877 15.3343 70.0169 15.3343 68.7009C15.3343 67.3835 16.4095 66.3141 17.7211 66.3141ZM37.9438 71.0877C36.6278 71.0877 35.557 70.0169 35.557 68.7009C35.557 67.3848 36.6278 66.3141 37.9438 66.3141C39.2562 66.3141 40.3307 67.387 40.3307 68.7009C40.3307 70.0171 39.2599 71.0877 37.9438 71.0877ZM44.8231 78.229C46.1392 78.229 47.2099 79.2998 47.2099 80.6159C47.2099 81.9319 46.1392 83.0027 44.8231 83.0027C43.5071 83.0027 42.4363 81.9319 42.4363 80.6159C42.4363 79.2998 43.5071 78.229 44.8231 78.229ZM68.1618 48.8615C69.4491 48.8615 70.5486 49.9126 70.5486 51.2483C70.5486 52.5644 69.4778 53.6352 68.1618 53.6352C66.8458 53.6352 65.775 52.5644 65.775 51.2483C65.775 49.9323 66.8458 48.8615 68.1618 48.8615ZM48.0202 48.8615C49.3363 48.8615 50.4071 49.9323 50.4071 51.2483C50.4071 52.5644 49.3363 53.6352 48.0202 53.6352C46.706 53.6352 45.6334 52.5541 45.6334 51.2483C45.6334 49.9353 46.7119 48.8615 48.0202 48.8615ZM78.2856 31.4091C79.6016 31.4091 80.6724 32.4799 80.6724 33.7959C80.6724 35.112 79.6016 36.1828 78.2856 36.1828C76.9858 36.1828 75.8987 35.1189 75.8987 33.7959C75.8987 32.4861 76.9734 31.4091 78.2856 31.4091ZM68.1618 13.9567C69.4778 13.9567 70.5486 15.0275 70.5486 16.3435C70.5486 17.6631 69.4664 18.7304 68.1618 18.7304C66.8459 18.7304 65.7751 17.6599 65.775 16.3434C65.7751 15.0274 66.8458 13.9567 68.1618 13.9567ZM48.0202 13.9567C49.3363 13.9567 50.4071 15.0274 50.4071 16.3434C50.4071 17.5773 49.4659 18.5955 48.264 18.7179C46.856 18.8614 45.6334 17.7498 45.6334 16.3435C45.6334 15.0274 46.7042 13.9567 48.0202 13.9567ZM41.1779 6.81539C39.8619 6.81539 38.7911 5.74459 38.7911 4.42856C38.7911 3.11253 39.8619 2.04174 41.1779 2.04174C42.4939 2.04174 43.5645 3.11253 43.5645 4.42856C43.5645 5.74459 42.4939 6.81539 41.1779 6.81539ZM37.9438 31.4091C39.253 31.4091 40.3307 32.4828 40.3307 33.7959C40.3307 35.094 39.2667 36.1828 37.9438 36.1828C36.6281 36.1828 35.557 35.1123 35.557 33.7959C35.5572 32.4797 36.628 31.4091 37.9438 31.4091ZM17.7211 31.4091C19.0372 31.4091 20.108 32.4799 20.108 33.7959C20.108 35.112 19.0372 36.1828 17.7211 36.1828C16.4075 36.1828 15.3343 35.1123 15.3343 33.7959C15.3343 32.4797 16.4051 31.4091 17.7211 31.4091ZM7.71511 48.8615C9.0266 48.8615 10.1019 49.9378 10.1019 51.2483C10.1019 52.5412 9.04122 53.6352 7.71511 53.6352C6.39908 53.6352 5.32828 52.5644 5.32828 51.2483C5.32828 49.9323 6.39908 48.8615 7.71511 48.8615Z" fill="#6DA544"/>
<circle cx="37.9835" cy="33.6833" r="3" stroke="#D80027" stroke-width="4.03333"/>
</g>
<defs>
<clipPath id="clip0">
<rect width="86" height="86" fill="white"/>
</clipPath>
</defs>
</svg>
