<svg width="30" height="30" viewBox="0 0 30 30" fill="none" xmlns="http://www.w3.org/2000/svg">
<g clip-path="url(#clip0)">
<path d="M25.3627 4.26304C19.4775 -1.42101 10.1473 -1.42101 4.2621 4.26304C-1.56469 10.296 -1.39758 19.9101 4.63536 25.7369C10.5205 31.4209 19.8508 31.4209 25.736 25.7369C31.5627 19.704 31.3956 10.0898 25.3627 4.26304ZM25.0222 25.0231L25.0171 25.0181C19.4792 30.5509 10.5047 30.5468 4.97184 25.0089C-0.56101 19.4711 -0.556916 10.4965 4.98097 4.9637C10.5189 -0.569142 19.4934 -0.565048 25.0263 4.97278C27.6839 7.63281 29.1757 11.2398 29.1732 15C29.1735 18.7593 27.6803 22.3648 25.0222 25.0231Z" fill="#496E2D"/>
<path d="M23.5299 19.3232L20.6849 16.4884C20.0393 15.8412 18.9912 15.8399 18.344 16.4856C18.343 16.4865 18.3421 16.4874 18.3412 16.4884L16.7112 18.1184C16.5878 18.242 16.3935 18.2591 16.2505 18.1589C15.3584 17.5354 14.5232 16.834 13.7549 16.0631C13.0667 15.3765 12.4337 14.6369 11.8616 13.8509C11.7579 13.7097 11.773 13.514 11.897 13.3903L13.5675 11.7198C14.2125 11.0736 14.2125 10.0272 13.5675 9.38103L10.7226 6.5361C10.067 5.90935 9.03439 5.90935 8.37882 6.5361L7.47777 7.43715C6.11697 8.78265 5.63117 10.7805 6.22232 12.6006C6.66345 13.9322 7.28699 15.1963 8.07509 16.3567C8.78459 17.4206 9.59855 18.411 10.5049 19.3131C11.4904 20.3055 12.5819 21.1865 13.7599 21.9404C15.0549 22.7854 16.4768 23.4177 17.9717 23.8133C18.3559 23.9081 18.7503 23.9557 19.1461 23.9551C20.5028 23.9468 21.8009 23.4006 22.7554 22.4364L23.5299 21.6619C24.1748 21.0157 24.1748 19.9694 23.5299 19.3232ZM22.813 20.9715C22.8124 20.9721 22.8117 20.9729 22.811 20.9735L22.8161 20.9583L22.0415 21.7328C21.0464 22.7406 19.5971 23.1552 18.2196 22.8263C16.8317 22.4548 15.5124 21.8635 14.3116 21.0748C13.1959 20.3618 12.1621 19.5283 11.2287 18.5892C10.3699 17.7367 9.59832 16.8006 8.92536 15.7949C8.18928 14.7127 7.60668 13.5339 7.19409 12.2918C6.72111 10.8327 7.11305 9.23166 8.20655 8.15602L9.1076 7.25497C9.35812 7.00332 9.76519 7.00243 10.0168 7.25295C10.0174 7.25361 10.0181 7.25426 10.0188 7.25497L12.8637 10.0999C13.1154 10.3504 13.1163 10.7575 12.8657 11.0091C12.8651 11.0097 12.8644 11.0104 12.8637 11.0111L11.1932 12.6816C10.7139 13.1557 10.6536 13.9091 11.0515 14.4534C11.6557 15.2826 12.3243 16.0629 13.0511 16.7871C13.8614 17.6009 14.7422 18.3412 15.6834 18.9993C16.2272 19.3786 16.9645 19.3147 17.4349 18.8474L19.0497 17.2073C19.3002 16.9556 19.7073 16.9548 19.9589 17.2053C19.9596 17.2059 19.9602 17.2066 19.9609 17.2073L22.811 20.0624C23.0627 20.3128 23.0636 20.7198 22.813 20.9715Z" fill="#496E2D"/>
</g>
<defs>
<clipPath id="clip0">
<rect width="30" height="30" fill="white"/>
</clipPath>
</defs>
</svg>
