<svg width="24" height="24" viewBox="0 0 24 24" fill="none" xmlns="http://www.w3.org/2000/svg">
<g clip-path="url(#clip0)">
<path d="M20.2904 3.41043C15.5823 -1.13681 8.1181 -1.13681 3.40997 3.41043C-1.25146 8.23678 -1.11777 15.9281 3.70858 20.5895C8.41671 25.1368 15.8809 25.1368 20.5891 20.5895C25.2505 15.7632 25.1168 8.07187 20.2904 3.41043ZM20.018 20.0185L20.014 20.0145C15.5837 24.4407 8.40404 24.4375 3.97776 20.0072C-0.448515 15.5768 -0.44524 8.39724 3.98507 3.97096C8.41538 -0.455313 15.595 -0.452039 20.0213 3.97822C22.1474 6.10625 23.3408 8.99184 23.3389 12C23.3391 15.0074 22.1445 17.8918 20.018 20.0185Z" fill="#496E2D"/>
<path d="M18.8235 15.4585L16.5476 13.1906C16.031 12.6729 15.1925 12.6719 14.6748 13.1884C14.674 13.1892 14.6733 13.1899 14.6725 13.1906L13.3685 14.4946C13.2699 14.5936 13.1144 14.6072 13 14.5271C12.2863 14.0283 11.6182 13.4672 11.0035 12.8505C10.453 12.3012 9.94657 11.7095 9.48888 11.0807C9.40593 10.9678 9.41798 10.8111 9.51722 10.7122L10.8536 9.37577C11.3696 8.85881 11.3696 8.02174 10.8536 7.50478L8.57769 5.22883C8.05323 4.72743 7.22712 4.72743 6.70267 5.22883L5.98182 5.94967C4.89318 7.02607 4.50455 8.62436 4.97747 10.0804C5.33037 11.1457 5.8292 12.157 6.45968 13.0853C7.02728 13.9364 7.67845 14.7287 8.40356 15.4504C9.19189 16.2444 10.0651 16.9492 11.0075 17.5522C12.0436 18.2283 13.1811 18.7341 14.3769 19.0506C14.6844 19.1264 14.9999 19.1645 15.3165 19.164C16.4019 19.1574 17.4403 18.7205 18.2039 17.9491L18.8236 17.3295C19.3395 16.8126 19.3395 15.9755 18.8235 15.4585ZM18.25 16.7771C18.2495 16.7777 18.249 16.7782 18.2484 16.7788L18.2525 16.7666L17.6328 17.3862C16.8367 18.1924 15.6773 18.5241 14.5753 18.261C13.465 17.9638 12.4095 17.4907 11.4489 16.8598C10.5564 16.2894 9.72926 15.6226 8.98255 14.8713C8.2955 14.1893 7.67826 13.4404 7.1399 12.6359C6.55104 11.7701 6.08495 10.827 5.75488 9.83341C5.3765 8.66613 5.69005 7.38528 6.56485 6.52477L7.28569 5.80393C7.4861 5.60261 7.81176 5.6019 8.01303 5.80231C8.01355 5.80284 8.01412 5.80336 8.01464 5.80393L10.2906 8.07988C10.4919 8.28029 10.4926 8.60595 10.2922 8.80722C10.2917 8.80774 10.2912 8.80826 10.2906 8.80883L8.95417 10.1453C8.57071 10.5245 8.52249 11.1273 8.8408 11.5627C9.32416 12.2261 9.85906 12.8503 10.4405 13.4296C11.0887 14.0807 11.7934 14.6729 12.5463 15.1994C12.9814 15.5028 13.5712 15.4517 13.9475 15.0779L15.2394 13.7658C15.4398 13.5645 15.7655 13.5638 15.9667 13.7642C15.9672 13.7647 15.9678 13.7652 15.9683 13.7658L18.2484 16.0499C18.4497 16.2502 18.4504 16.5758 18.25 16.7771Z" fill="#496E2D"/>
</g>
<defs>
<clipPath id="clip0">
<rect width="24" height="24" fill="white"/>
</clipPath>
</defs>
</svg>
