<svg width="15" height="15" viewBox="0 0 15 15" fill="none" xmlns="http://www.w3.org/2000/svg">
<path d="M6.21132 8.78866C4.77959 7.35694 4.45632 5.92522 4.38339 5.3516C4.36301 5.19299 4.41759 5.03393 4.53106 4.92125L5.68968 3.76315C5.86011 3.59282 5.89036 3.32736 5.76261 3.12306L3.91787 0.258578C3.77654 0.032349 3.48634 -0.0492992 3.24778 0.0700434L0.286317 1.46478C0.0934009 1.55978 -0.0200696 1.76475 0.00183387 1.97866C0.157006 3.4528 0.799679 7.0766 4.36089 10.6381C7.92209 14.1995 11.5454 14.8419 13.0203 14.9971C13.2342 15.019 13.4392 14.9055 13.5342 14.7126L14.9289 11.7512C15.0478 11.5131 14.9667 11.2237 14.7414 11.0821L11.8769 9.23789C11.6727 9.11001 11.4073 9.14004 11.2368 9.3103L10.0787 10.4689C9.96605 10.5824 9.80699 10.637 9.64839 10.6166C9.07477 10.5437 7.64304 10.2204 6.21132 8.78866Z" fill="black"/>
<path d="M11.8966 8.01722C11.6109 8.01722 11.3793 7.78564 11.3793 7.49998C11.3769 5.3585 9.64151 3.62309 7.50003 3.62066C7.21436 3.62066 6.98279 3.38909 6.98279 3.10342C6.98279 2.81776 7.21436 2.58618 7.50003 2.58618C10.2126 2.58917 12.4108 4.7874 12.4138 7.49998C12.4138 7.78564 12.1822 8.01722 11.8966 8.01722Z" fill="black"/>
<path d="M14.4828 8.01724C14.1971 8.01724 13.9655 7.78567 13.9655 7.5C13.9616 3.93085 11.0692 1.03847 7.50003 1.03448C7.21436 1.03448 6.98279 0.802906 6.98279 0.517241C6.98279 0.231577 7.21436 0 7.50003 0C11.6403 0.004561 14.9955 3.35976 15 7.5C15 7.63718 14.9455 7.76874 14.8485 7.86575C14.7515 7.96275 14.62 8.01724 14.4828 8.01724Z" fill="black"/>
</svg>
