<svg width="16" height="15" viewBox="0 0 16 15" fill="none" xmlns="http://www.w3.org/2000/svg">
<path d="M6.2499 8.78873C4.80928 7.357 4.484 5.92528 4.41062 5.35166C4.39011 5.19305 4.44503 5.03399 4.55921 4.92131L5.72502 3.76321C5.89652 3.59288 5.92695 3.32743 5.79841 3.12312L3.94221 0.258639C3.8 0.0324101 3.508 -0.0492381 3.26796 0.0701044L0.2881 1.46485C0.0939863 1.55984 -0.0201889 1.76481 0.00185057 1.97873C0.157987 3.45286 0.804651 7.07666 4.38798 10.6381C7.9713 14.1996 11.6171 14.842 13.1012 14.9972C13.3164 15.0191 13.5226 14.9056 13.6182 14.7127L15.0216 11.7512C15.1413 11.5132 15.0597 11.2238 14.833 11.0822L11.9507 9.23795C11.7452 9.11007 11.4781 9.1401 11.3066 9.31036L10.1413 10.469C10.028 10.5825 9.86791 10.637 9.70832 10.6167C9.13113 10.5437 7.69052 10.2205 6.2499 8.78873Z" fill="white"/>
<path d="M11.9704 8.01722C11.683 8.01722 11.45 7.78564 11.45 7.49998C11.4475 5.3585 9.70136 3.62309 7.54658 3.62066C7.25914 3.62066 7.02612 3.38909 7.02612 3.10342C7.02612 2.81776 7.25914 2.58618 7.54658 2.58618C10.276 2.58917 12.4879 4.7874 12.4909 7.49998C12.4909 7.78564 12.2579 8.01722 11.9704 8.01722Z" fill="white"/>
<path d="M14.5727 8.01724C14.2853 8.01724 14.0523 7.78567 14.0523 7.5C14.0482 3.93085 11.1379 1.03847 7.54658 1.03448C7.25914 1.03448 7.02612 0.802906 7.02612 0.517241C7.02612 0.231577 7.25914 0 7.54658 0C11.7125 0.004561 15.0886 3.35976 15.0932 7.5C15.0932 7.63718 15.0383 7.76874 14.9407 7.86575C14.8431 7.96275 14.7107 8.01724 14.5727 8.01724Z" fill="white"/>
</svg>
