<svg width="60" height="60" viewBox="0 0 60 60" fill="none" xmlns="http://www.w3.org/2000/svg">
<g clip-path="url(#clip0)">
<path d="M55.2394 16.7507L54.8967 16.6887C50.5804 16.9161 39.5936 18.5015 38.3154 28.7313C38.2736 29.066 38.5717 29.3817 38.9642 29.4179C52.2737 30.6467 55.6366 21.313 56.4189 17.9198L56.2086 17.5564L55.2394 16.7507Z" fill="#B5E245"/>
<path d="M56.5363 17.3794C56.6101 17.0036 56.2488 16.6463 55.804 16.6548C55.5499 16.6596 55.2442 16.6698 54.8966 16.6886C52.0794 18.2476 44.284 22.7722 37.8464 28.4733C33.5659 32.2641 34.3053 36.7126 34.3389 36.9001C34.4174 37.3383 34.7989 37.646 35.2291 37.646C35.2821 37.646 35.3358 37.6415 35.3898 37.6317C35.882 37.5435 36.2095 37.073 36.1214 36.5808C36.115 36.5449 35.5191 32.953 39.047 29.8289C45.9646 23.7028 54.5038 18.9531 56.4189 17.9195C56.466 17.7198 56.5054 17.5371 56.5363 17.3794Z" fill="#A8D340"/>
<path d="M32.0377 28.7312C30.7536 18.4544 19.73 16.9047 15.4565 16.6885L14.6536 16.9483L14.1458 17.505L13.9338 17.9195C14.7345 21.3479 18.1347 30.6416 31.3889 29.4178C31.7814 29.3815 32.0795 29.0659 32.0377 28.7312Z" fill="#B5E245"/>
<path d="M32.5065 28.4733C26.0689 22.7722 18.2734 18.2476 15.4563 16.6886C15.1091 16.6698 14.8029 16.6596 14.5491 16.6548C14.1041 16.6464 13.7429 17.0036 13.8168 17.3794C13.8478 17.5375 13.8864 17.7188 13.9338 17.9195C15.8483 18.9526 24.3881 23.7027 31.306 29.829C34.7943 32.9179 34.2571 36.4291 34.231 36.5852C34.1456 37.0759 34.4727 37.5438 34.9634 37.6318C35.0174 37.6415 35.071 37.6461 35.124 37.6461C35.5541 37.6461 35.9358 37.3384 36.0143 36.9002C36.0478 36.7126 36.7873 32.2641 32.5065 28.4733Z" fill="#A8D340"/>
<path d="M35.687 0.859375H34.5115C34.5115 0.859375 34.2424 0.999414 34.2163 1.04395C31.9955 4.81984 26.9077 15.4523 35.1082 22.551H35.1373C43.3559 15.4367 38.2401 4.79441 36.0272 1.04066C36.006 1.00469 35.687 0.859375 35.687 0.859375Z" fill="#C6E873"/>
<path d="M35.5325 0.228076C35.3395 -0.0760254 34.9054 -0.0760254 34.7124 0.228076C34.5734 0.4471 34.4044 0.722139 34.2161 1.04394V37.3373C34.2161 37.8374 34.6214 38.2426 35.1215 38.2426C35.6215 38.2426 36.0268 37.8373 36.0268 37.3373V1.04065C35.8393 0.720147 35.6711 0.446396 35.5325 0.228076Z" fill="#A8D340"/>
<path d="M47.3631 47.1273L41.8212 42.7081C37.6254 39.3623 32.4649 37.7951 27.3652 38.0059C25.4312 38.0859 23.561 38.7412 22.0166 39.9079C21.8678 40.0204 21.72 40.135 21.5734 40.2518L16.0315 44.6711L35.1227 53.8117L47.8464 47.7198L47.3631 47.1273Z" fill="#CE9875"/>
<path d="M41.2174 43.3117L46.7593 47.731L47.1817 48.0381L54.2139 44.6712L48.672 40.252C41.3228 34.3914 31.0139 33.9878 23.2559 39.039C29.4301 37.7705 36.0543 39.1943 41.2174 43.3117Z" fill="#C6865C"/>
<path d="M16.839 50.7906C17.5671 50.1447 18.5821 49.9312 19.5087 50.2291L27.1212 52.676C27.9594 53.0054 28.8576 53.1291 29.7479 53.0379L44.9026 51.4829C45.9051 51.38 47.9061 49.9952 48.8511 47.9511C49.3593 46.8517 49.8165 45.8163 49.8165 45.8163L49.6253 45.3937L47.7306 46.3897C46.0154 47.2913 44.1359 47.7925 42.2203 47.8592L42.2746 46.9602C42.3127 46.3306 42.205 45.6954 41.9238 45.131C41.4163 44.1131 40.4677 43.3777 39.3364 43.209L32.0569 42.3255C30.3778 42.0751 29.5386 41.4819 28.0747 40.5792C26.646 39.6982 23.9901 38.627 22.5514 38.1962C20.0255 37.4397 17.2961 37.7954 14.9962 39.085L4.73584 44.8383L11.4209 55.4993L16.839 50.7906Z" fill="#FFDDCE"/>
<path d="M4.77225 44.817L4.73486 44.8379L4.8108 44.959L4.77225 44.817Z" fill="#FFCBBE"/>
<path d="M57.2267 43.5734C56.5599 42.5404 55.2269 42.269 54.2431 42.9659L49.6246 45.3936C49.6246 45.3936 49.1675 46.429 48.6592 47.5284C47.7142 49.5725 45.7133 50.9573 44.7107 51.0602L29.556 52.6152C28.6658 52.7066 27.7675 52.5827 26.9294 52.2533L19.3169 49.8064C18.3903 49.5085 17.3752 49.722 16.6471 50.3679L11.1812 55.1177L12.7747 57.6589L17.1603 53.7689C17.8627 53.1458 18.8418 52.9399 19.7357 53.2272L27.0792 55.5876C27.8876 55.9054 28.7541 56.0249 29.613 55.9367L44.232 54.4367C45.1427 54.3433 46.0184 54.0192 46.7847 53.4921L56.8761 46.5501C57.6858 45.7918 57.8361 44.5176 57.2267 43.5734Z" fill="#FFCBBE"/>
<path d="M32.1851 48.5143C32.205 48.5143 32.2249 48.5137 32.2451 48.5125L42.2195 47.859L42.2738 46.96C42.2922 46.6556 42.2757 46.35 42.2229 46.0516L32.127 46.7053C31.6279 46.738 31.2499 47.1689 31.2825 47.6679C31.3138 48.1468 31.712 48.5143 32.1851 48.5143Z" fill="#FFCBBE"/>
<path d="M14.7394 58.5556L12.6302 59.7734C11.8218 60.24 10.7882 59.9631 10.3216 59.1548L2.62658 45.8264C2.15994 45.0181 2.43685 43.9845 3.24521 43.5179L5.35447 42.3C6.16283 41.8334 7.19642 42.1103 7.66307 42.9187L15.3582 56.2469C15.8248 57.0552 15.5478 58.0888 14.7394 58.5556Z" fill="#DD636E"/>
</g>
<defs>
<clipPath id="clip0">
<rect width="60" height="60" fill="white"/>
</clipPath>
</defs>
</svg>
