<svg width="60" height="60" viewBox="0 0 60 60" fill="none" xmlns="http://www.w3.org/2000/svg">
<g clip-path="url(#clip0)">
<path d="M45.2463 34.5181C45.2463 23.6128 36.4293 14.7725 25.5528 14.7725C14.6764 14.7725 5.85938 23.6128 5.85938 34.5181C5.85938 45.4234 14.6764 54.2637 25.5528 54.2637C36.4293 54.2637 45.2463 45.4234 45.2463 34.5181Z" fill="#89C8FD"/>
<path d="M25.5527 14.7725C24.542 14.7725 23.5486 14.8489 22.5791 14.9963C32.0443 16.4337 39.2985 24.6263 39.2985 34.5181C39.2985 44.4099 32.0443 52.6025 22.5791 54.0399C23.5486 54.1873 24.542 54.2637 25.5527 54.2637C36.4292 54.2637 45.2462 45.4234 45.2462 34.5181C45.2462 23.6128 36.4292 14.7725 25.5527 14.7725Z" fill="#60B6FF"/>
<path d="M22.993 22.4465C19.9594 24.3476 17.6839 27.389 19.3904 30.8112C21.097 34.233 24.8891 32.9023 28.3969 32.4271C31.9048 31.952 29.2502 42.7882 31.3358 45.4496C33.4213 48.111 39.299 42.7882 38.7305 39.3659C37.8882 34.2994 37.593 32.5219 44.4187 28.9101L44.437 28.9033C42.1363 21.1126 35.1718 15.3319 26.7861 14.8124L26.7852 14.8421C26.7852 14.8421 26.0266 20.5454 22.993 22.4465Z" fill="#BAEB6C"/>
<path d="M37.8914 19.1295C37.8927 19.1304 37.8941 19.1318 37.8955 19.1327C37.8941 19.1318 37.8927 19.1309 37.8914 19.1295Z" fill="#BAEB6C"/>
<path d="M40.2996 21.433C40.2996 21.4334 40.2999 21.4337 40.3003 21.4337C40.2999 21.4334 40.2999 21.4334 40.2996 21.433Z" fill="#BAEB6C"/>
<path d="M12.4699 43.4532C11.559 42.0639 14.0817 38.7959 14.6503 36.3245C15.2193 33.853 11.8062 34.043 10.7634 33.1874C9.72061 32.3318 8.29834 28.6249 7.25555 27.7693L7.08893 27.6379C6.29425 29.7803 5.85938 32.0984 5.85938 34.5181C5.85938 41.0449 9.01794 46.8311 13.8858 50.4259L13.8918 50.0121C13.8918 50.0121 14.6503 46.7802 12.4699 43.4532Z" fill="#BAEB6C"/>
<path d="M38.7305 39.3659C38.7263 39.3412 38.7222 39.317 38.7181 39.2922C38.3414 40.8143 37.7884 42.2668 37.082 43.6263C38.2022 42.3043 38.9506 40.6925 38.7305 39.3659Z" fill="#BAEB6C"/>
<path d="M26.7861 14.8124L26.7852 14.8421C26.7852 14.8421 26.722 15.3182 26.5591 16.0401C33.4649 18.6539 38.5209 25.0471 39.2167 32.7045C40.0869 31.5143 41.6786 30.3599 44.4187 28.9101L44.437 28.9033C42.1363 21.1126 35.1719 15.3319 26.7861 14.8124Z" fill="#96D629"/>
<path d="M25.5263 59.9999C24.1315 59.9999 22.7266 59.8855 21.3227 59.6534C14.6114 58.5451 8.73327 54.8899 4.77132 49.361C0.80938 43.8321 -0.762123 37.0911 0.34658 30.3803C0.426689 29.8942 0.887199 29.5655 1.37197 29.6456C1.85812 29.7257 2.18725 30.1848 2.10668 30.671C1.07626 36.9117 2.53744 43.1803 6.22198 48.3219C9.90652 53.4635 15.3722 56.8624 21.6138 57.8933C34.4985 60.0219 46.7098 51.2708 48.8379 38.388C49.8684 32.1473 48.4072 25.8787 44.7226 20.7371C41.0386 15.5955 35.5724 12.1966 29.3313 11.1657C28.8451 11.0856 28.516 10.6264 28.5961 10.1403C28.6767 9.65414 29.1367 9.32547 29.6215 9.40558C36.3332 10.5138 42.2114 14.1691 46.1728 19.6979C50.1348 25.2268 51.7063 31.9678 50.598 38.6786C49.4898 45.3895 45.8341 51.2671 40.3048 55.2286C35.9318 58.3616 30.8011 59.9999 25.5263 59.9999Z" fill="#09A66D"/>
<path d="M20.1099 21.5493C10.5866 19.9334 4.67871 7.94276 4.67871 7.94276C4.67871 7.94276 14.2116 -1.42812 23.735 0.187327C33.2583 1.80277 39.1662 13.7934 39.1662 13.7934C39.1662 13.7934 29.6332 23.1648 20.1099 21.5493Z" fill="#49CB5C"/>
<path d="M23.7352 0.187184C21.9165 -0.121348 20.0982 -0.0284224 18.3455 0.322682C27.471 2.37163 33.1001 13.7933 33.1001 13.7933C33.1001 13.7933 26.8599 19.9269 19.4331 21.4137C19.657 21.464 19.8822 21.5103 20.1101 21.5492C29.6335 23.1646 39.1664 13.7933 39.1664 13.7933C39.1664 13.7933 33.2585 1.80263 23.7352 0.187184Z" fill="#07B128"/>
<path d="M38.6278 12.7977L29.3146 11.2266L20.6153 0.0251465C19.9213 0.0658874 19.2338 0.154694 18.5554 0.281952L26.7145 10.7876L19.692 9.60293L13.6999 1.85025C13.1377 2.10385 12.5912 2.37302 12.0643 2.65225L17.0983 9.16531L5.48621 7.20608C4.96481 7.66156 4.67871 7.94263 4.67871 7.94263C4.67871 7.94263 4.87006 8.33035 5.23718 8.97351L16.7861 10.9218L10.3811 15.8743C10.7935 16.2991 11.2261 16.7189 11.6784 17.1263L19.1802 11.326L26.6147 12.5802L16.5037 20.403C17.1313 20.6959 17.7799 20.9495 18.4487 21.1537L29.0089 12.9844L38.328 14.5564C38.8682 14.0854 39.1662 13.7933 39.1662 13.7933C39.1662 13.7933 38.9817 13.4198 38.6278 12.7977Z" fill="#09A66D"/>
<path d="M45.6435 9.91016C48.1983 3.86493 57.05 1.82971 57.05 1.82971C57.05 1.82971 61.76 9.59567 59.2052 15.6409C56.6509 21.6861 47.7986 23.7213 47.7986 23.7213C47.7986 23.7213 43.0887 15.9554 45.6435 9.91016Z" fill="#49CB5C"/>
<path d="M57.0501 1.82971C57.0501 1.82971 55.0373 2.29297 52.6542 3.4328C53.8769 6.02283 55.815 11.2793 53.9716 15.6409C52.6354 18.8031 49.5757 20.8681 46.9614 22.1183C47.4334 23.118 47.7991 23.7213 47.7991 23.7213C47.7991 23.7213 56.6509 21.6861 59.2057 15.6409C61.76 9.59567 57.0501 1.82971 57.0501 1.82971Z" fill="#07B128"/>
<path d="M59.9291 10.6549L53.1221 13.5105L57.5913 2.82581C57.2713 2.19409 57.0502 1.82971 57.0502 1.82971C57.0502 1.82971 56.6291 1.92676 55.9438 2.14099L51.325 13.1832L48.4607 6.13589C47.9755 6.5639 47.5177 7.02899 47.1025 7.53299L50.3481 15.5187L47.2994 22.8072C47.5969 23.3881 47.7988 23.7213 47.7988 23.7213C47.7988 23.7213 48.2566 23.6161 48.9926 23.3826L52.1407 15.857L59.9263 12.5913C59.9781 11.9445 59.9753 11.2958 59.9291 10.6549Z" fill="#09A66D"/>
</g>
<defs>
<clipPath id="clip0">
<rect width="60" height="60" fill="white"/>
</clipPath>
</defs>
</svg>
