<svg width="86" height="86" viewBox="0 0 86 86" fill="none" xmlns="http://www.w3.org/2000/svg">
<path d="M76.1811 24.2256C76.2657 23.5484 76.2996 22.8882 76.2996 22.2449C76.2996 12.3075 68.2075 4.21535 58.2701 4.21535C56.6787 4.21535 55.1043 4.43543 53.5468 4.85866C50.889 1.76063 47.0968 0 43 0C36.8209 0 31.5051 3.99528 29.7276 9.75118C27.8315 8.80315 25.7323 8.3122 23.5823 8.3122C15.9134 8.32913 9.66653 14.5591 9.66653 22.2449C9.66653 22.9051 9.71732 23.5654 9.8189 24.2425C4.06299 26.0031 0 31.3697 0 37.515C0 44.6083 5.38346 50.5335 12.3583 51.2953C14.9823 54.8673 19.1299 56.9835 23.5823 56.9835C28.0008 56.9835 32.1146 54.9012 34.7386 51.3799H72.135C79.787 51.3799 86 45.15 86 37.515C86 31.3697 81.937 25.9862 76.1811 24.2256ZM72.135 48.6035H33.2657C33.2657 48.6035 30.1677 54.2071 23.5823 54.2071C16.9969 54.2071 13.8988 48.6205 13.8988 48.6205L13.2047 48.5866C7.34724 48.2311 2.77638 43.3724 2.77638 37.5319C2.77638 27.5098 13.137 26.3756 13.137 26.3756C13.137 26.3756 12.4429 24.5303 12.4429 22.2787C12.4429 16.1335 17.437 11.1394 23.5823 11.1394C28.3394 11.1394 31.6744 14.322 31.6744 14.322L32.0299 12.172C32.9102 6.75472 37.5319 2.82717 43.0169 2.82717C49.3484 2.82717 52.548 8.12598 52.548 8.12598C52.548 8.12598 54.8504 7.04252 58.287 7.04252C66.7008 7.04252 73.5402 13.8819 73.5402 22.2957C73.5402 25.1059 73.0323 26.4094 73.0323 26.4094C73.0323 26.4094 83.2575 27.8823 83.2575 37.5488C83.2236 43.6094 78.2465 48.6035 72.135 48.6035Z" fill="#6DA544"/>
<path d="M58.2529 9.802V12.5784C63.5518 12.5784 67.8687 16.8953 67.8687 22.1941H70.6451C70.6451 15.3548 65.0923 9.802 58.2529 9.802Z" fill="#6DA544"/>
<path d="M70.7471 58.9641C70.7471 58.9641 65.1943 65.2787 65.1943 67.9704C65.1943 71.0346 67.6829 73.5232 70.7471 73.5232C73.8113 73.5232 76.2999 71.0346 76.2999 67.9704C76.2999 65.2787 70.7471 58.9641 70.7471 58.9641ZM70.7471 70.7468C69.2235 70.7468 67.9707 69.511 67.9707 67.9704C67.9707 67.0901 69.2743 65.0247 70.7471 63.1795C72.2199 65.0247 73.5235 67.0901 73.5235 67.9704C73.5235 69.494 72.2707 70.7468 70.7471 70.7468Z" fill="#D80027"/>
<path d="M47.1641 58.9641C47.1641 58.9641 41.6113 65.2787 41.6113 67.9704C41.6113 71.0346 44.0999 73.5232 47.1641 73.5232C50.2283 73.5232 52.7168 71.0346 52.7168 67.9704C52.7168 65.2787 47.1641 58.9641 47.1641 58.9641ZM47.1641 70.7468C45.6405 70.7468 44.3877 69.511 44.3877 67.9704C44.3877 67.0901 45.6912 65.0247 47.1641 63.1795C48.6369 65.0247 49.9405 67.0901 49.9405 67.9704C49.9405 69.494 48.6877 70.7468 47.1641 70.7468Z" fill="#D80027"/>
<path d="M23.5821 58.9641C23.5821 58.9641 18.0293 65.2787 18.0293 67.9704C18.0293 71.0346 20.5179 73.5232 23.5821 73.5232C26.6462 73.5232 29.1348 71.0346 29.1348 67.9704C29.1348 65.2787 23.5821 58.9641 23.5821 58.9641ZM23.5821 70.7468C22.0584 70.7468 20.8057 69.511 20.8057 67.9704C20.8057 67.0901 22.1092 65.0247 23.5821 63.1795C25.0549 65.0247 26.3584 67.0901 26.3584 67.9704C26.3584 69.494 25.1057 70.7468 23.5821 70.7468Z" fill="#D80027"/>
<path d="M58.9639 71.4409C58.9639 71.4409 53.4111 77.7555 53.4111 80.4472C53.4111 83.5114 55.8997 86 58.9639 86C62.0281 86 64.5166 83.5114 64.5166 80.4472C64.5166 77.7555 58.9639 71.4409 58.9639 71.4409ZM58.947 83.2236C57.4233 83.2236 56.1706 81.9878 56.1706 80.4472C56.1706 79.5669 57.4741 77.5016 58.947 75.6563C60.4198 77.5016 61.7233 79.5669 61.7233 80.4472C61.7233 81.9878 60.4875 83.2236 58.947 83.2236Z" fill="#6DA544"/>
<path d="M35.3819 71.4409C35.3819 71.4409 29.8291 77.7555 29.8291 80.4472C29.8291 83.5114 32.3177 86 35.3819 86C38.446 86 40.9346 83.5114 40.9346 80.4472C40.9346 77.7555 35.3819 71.4409 35.3819 71.4409ZM35.3649 83.2236C33.8413 83.2236 32.5885 81.9878 32.5885 80.4472C32.5885 79.5669 33.8921 77.5016 35.3649 75.6563C36.8378 77.5016 38.1413 79.5669 38.1413 80.4472C38.1413 81.9878 36.9055 83.2236 35.3649 83.2236Z" fill="#6DA544"/>
</svg>
