<svg width="86" height="86" viewBox="0 0 86 86" fill="none" xmlns="http://www.w3.org/2000/svg">
<g clip-path="url(#clip0)">
<path d="M73.877 20.5871C73.4132 13.6849 67.6888 8.18088 60.7123 8.05624C53.8226 -3.25543 37.0969 -2.51797 31.2681 9.40315C25.3443 9.2355 19.899 13.0229 18.0799 18.8248C11.0074 19.2049 5.37109 25.0787 5.37109 32.2442C5.37109 41.6608 14.8524 48.142 23.5833 44.8093C27.808 51.4974 36.7923 53.0316 42.9999 48.3695C49.2011 53.0267 58.1872 51.5046 62.4165 44.8093C71.1429 48.1403 80.6287 41.666 80.6287 32.2442C80.6287 27.3781 78.0622 22.9828 73.877 20.5871ZM62.4412 41.8903C61.7816 41.5654 60.9826 41.8305 60.6488 42.4861C57.4037 48.8637 49.0928 50.2835 43.8961 45.6313C43.3859 45.1745 42.6135 45.1745 42.1034 45.6313C36.8985 50.2909 28.5903 48.8529 25.3507 42.4861C25.0169 41.8301 24.2178 41.5652 23.5582 41.8903C16.4713 45.3876 8.05853 40.224 8.05853 32.2442C8.05853 26.1606 13.1191 21.3249 19.0806 21.5003C19.7478 21.5109 20.2857 21.0555 20.4219 20.4534C21.6271 15.1296 26.5403 11.6029 31.9757 12.1393C32.5623 12.1978 33.118 11.8663 33.3463 11.3231C37.9351 0.413215 53.1152 -0.319706 58.7619 10.0543C59.0071 10.5048 59.4852 10.7766 60.0001 10.7543C66.1499 10.4947 71.1775 15.4182 71.2188 21.4178C71.2224 21.9248 71.5108 22.3866 71.9647 22.612C75.6505 24.4434 77.9403 28.1342 77.9403 32.2443C77.941 40.2383 69.5222 45.3845 62.4412 41.8903Z" fill="#6DA544"/>
<path d="M51.0628 63.1537H45.6873V55.0903C45.6873 53.7236 43.8718 53.2318 43.1826 54.4132L33.7754 70.5398C33.2538 71.4342 33.8997 72.5609 34.9362 72.5609H40.1706L38.9746 84.5221C38.8284 85.9801 40.8073 86.5828 41.4975 85.2883L52.2486 65.13C52.7247 64.237 52.0778 63.1537 51.0628 63.1537ZM42.3254 78.0243L42.9928 71.3505C43.0721 70.56 42.4503 69.8729 41.6556 69.8729H37.276L42.9995 60.0612V64.4974C42.9995 65.2395 43.6012 65.8413 44.3434 65.8413H48.8231L42.3254 78.0243Z" fill="#D80027"/>
<path d="M17.4665 56.4345C17.3255 56.4345 17.1824 56.4121 17.0413 56.3653C16.3373 56.1306 15.9568 55.3694 16.1913 54.6652L17.5352 50.6336C17.77 49.9296 18.5308 49.5494 19.2352 49.7836C19.9392 50.0183 20.3197 50.7794 20.0852 51.4836L18.7413 55.5153C18.5535 56.0783 18.0291 56.4345 17.4665 56.4345Z" fill="#6DA544"/>
<path d="M8.05926 61.81C7.91832 61.81 7.7752 61.7877 7.63409 61.7408C6.93006 61.5061 6.54957 60.745 6.78408 60.0408L8.12797 56.0091C8.36281 55.3053 9.12379 54.9251 9.82798 55.1591C10.532 55.3938 10.9125 56.1549 10.678 56.8591L9.33411 60.8908C9.1463 61.4539 8.62185 61.81 8.05926 61.81Z" fill="#6DA544"/>
<path d="M13.4343 68.5294C13.2933 68.5294 13.1502 68.507 13.0091 68.4602C12.3051 68.2255 11.9246 67.4643 12.1591 66.7601L13.503 62.7285C13.7378 62.0246 14.4986 61.6445 15.203 61.8785C15.907 62.1132 16.2875 62.8743 16.053 63.5785L14.7091 67.6102C14.5213 68.1732 13.9968 68.5294 13.4343 68.5294Z" fill="#6DA544"/>
<path d="M10.7468 79.2805C10.6058 79.2805 10.4627 79.2581 10.3216 79.2113C9.61756 78.9766 9.23707 78.2154 9.47158 77.5112L10.8155 73.4796C11.0503 72.7757 11.8115 72.3956 12.5155 72.6296C13.2195 72.8643 13.6 73.6254 13.3655 74.3296L12.0216 78.3613C11.8338 78.9243 11.3093 79.2805 10.7468 79.2805Z" fill="#6DA544"/>
<path d="M21.4977 75.2488C21.3568 75.2488 21.2137 75.2265 21.0726 75.1796C20.3685 74.945 19.988 74.1838 20.2226 73.4796L21.5664 69.448C21.8013 68.7441 22.5624 68.364 23.2665 68.598C23.9705 68.8326 24.351 69.5938 24.1165 70.298L22.7726 74.3296C22.5848 74.8927 22.0603 75.2488 21.4977 75.2488Z" fill="#6DA544"/>
<path d="M17.4665 86C17.3255 86 17.1824 85.9776 17.0413 85.9308C16.3373 85.6961 15.9568 84.9349 16.1913 84.2307L17.5352 80.1991C17.77 79.4952 18.5308 79.1151 19.2352 79.3491C19.9392 79.5837 20.3197 80.3449 20.0852 81.0491L18.7413 85.0808C18.5535 85.6438 18.0291 86 17.4665 86Z" fill="#6DA544"/>
<path d="M28.2175 83.3123C28.0765 83.3123 27.9334 83.2899 27.7923 83.2431C27.0883 83.0084 26.7078 82.2472 26.9423 81.543L28.2862 77.5114C28.521 76.8075 29.2822 76.4272 29.9862 76.6614C30.6902 76.8961 31.0707 77.6572 30.8362 78.3614L29.4923 82.3931C29.3045 82.9561 28.7801 83.3123 28.2175 83.3123Z" fill="#6DA544"/>
<path d="M24.1852 63.1538C24.0443 63.1538 23.9012 63.1315 23.7601 63.0846C23.056 62.8499 22.6755 62.0888 22.9101 61.3846L24.2539 57.3529C24.4888 56.6491 25.2496 56.2688 25.954 56.5029C26.658 56.7376 27.0385 57.4988 26.804 58.2029L25.4601 62.2346C25.2723 62.7977 24.7478 63.1538 24.1852 63.1538Z" fill="#6DA544"/>
<path d="M32.2487 63.1538C32.1078 63.1538 31.9647 63.1315 31.8235 63.0846C31.1195 62.8499 30.739 62.0888 30.9735 61.3846L32.3174 57.3529C32.5523 56.6491 33.3134 56.2688 34.0174 56.5029C34.7215 56.7376 35.102 57.4988 34.8674 58.2029L33.5236 62.2346C33.3358 62.7977 32.8113 63.1538 32.2487 63.1538Z" fill="#6DA544"/>
<path d="M60.4704 61.81C60.3295 61.81 60.1863 61.7877 60.0452 61.7408C59.3412 61.5061 58.9607 60.745 59.1952 60.0408L60.5391 56.0091C60.7739 55.3053 61.5349 54.9251 62.2391 55.1591C62.9431 55.3938 63.3236 56.1549 63.0891 56.8591L61.7452 60.8908C61.5574 61.4539 61.033 61.81 60.4704 61.81Z" fill="#6DA544"/>
<path d="M71.2214 57.7784C71.0804 57.7784 70.9373 57.756 70.7962 57.7092C70.0922 57.4745 69.7117 56.7134 69.9462 56.0092L71.2901 51.9775C71.5249 51.2736 72.2859 50.8935 72.9901 51.1275C73.6941 51.3622 74.0746 52.1233 73.8401 52.8275L72.4962 56.8592C72.3084 57.4223 71.784 57.7784 71.2214 57.7784Z" fill="#6DA544"/>
<path d="M68.5339 68.5294C68.3929 68.5294 68.2498 68.507 68.1087 68.4602C67.4047 68.2255 67.0242 67.4643 67.2587 66.7601L68.6026 62.7285C68.8374 62.0246 69.5984 61.6445 70.3026 61.8785C71.0066 62.1132 71.3871 62.8743 71.1526 63.5785L69.8087 67.6102C69.6209 68.1732 69.0965 68.5294 68.5339 68.5294Z" fill="#6DA544"/>
<path d="M56.4391 72.5611C56.2982 72.5611 56.1551 72.5388 56.014 72.4919C55.3099 72.2572 54.9295 71.4961 55.164 70.7919L56.5079 66.7602C56.7427 66.0564 57.5038 65.6762 58.2079 65.9102C58.9119 66.1449 59.2924 66.906 59.0579 67.6102L57.714 71.6419C57.5262 72.205 57.0017 72.5611 56.4391 72.5611Z" fill="#6DA544"/>
<path d="M53.7516 83.3123C53.6107 83.3123 53.4676 83.2899 53.3265 83.2431C52.6224 83.0084 52.242 82.2472 52.4765 81.543L53.8204 77.5114C54.0552 76.8075 54.8162 76.4272 55.5204 76.6614C56.2244 76.8961 56.6049 77.6572 56.3704 78.3614L55.0265 82.3931C54.8387 82.9561 54.3142 83.3123 53.7516 83.3123Z" fill="#6DA544"/>
<path d="M64.5016 79.2805C64.3607 79.2805 64.2176 79.2581 64.0765 79.2113C63.3724 78.9766 62.992 78.2154 63.2265 77.5112L64.5704 73.4796C64.8052 72.7757 65.5662 72.3956 66.2704 72.6296C66.9744 72.8643 67.3549 73.6254 67.1204 74.3296L65.7765 78.3613C65.5887 78.9243 65.0642 79.2805 64.5016 79.2805Z" fill="#6DA544"/>
</g>
<defs>
<clipPath id="clip0">
<rect width="86" height="86" fill="white"/>
</clipPath>
</defs>
</svg>
