<svg width="21" height="35" viewBox="0 0 21 35" fill="none" xmlns="http://www.w3.org/2000/svg">
<path d="M3.85371 3.14645L5.62148 1.37868L3.85371 3.14645ZM3.14661 3.85355L4.91437 2.08579L3.14661 3.85355ZM3.65538 30.7322L1.88761 28.9645L3.65538 30.7322ZM4.36249 31.4393L6.13025 33.2071L4.36249 31.4393ZM2.59472 29.6716L15.7797 16.4866L19.3152 20.0222L6.13025 33.2071L2.59472 29.6716ZM12.9512 24.9719L5.42315 32.5L1.88761 28.9645L9.41571 21.4364L12.9512 24.9719ZM4.91437 2.08579L12.9512 10.1227L9.41571 13.6582L1.37884 5.62132L4.91437 2.08579ZM15.7797 18.6079L2.08595 4.91421L5.62148 1.37868L19.3152 15.0724L15.7797 18.6079ZM1.37884 1.37868C2.55041 0.207105 4.44991 0.207109 5.62148 1.37868L2.08595 4.91421C2.86699 5.69526 4.13332 5.69526 4.91437 4.91421L1.37884 1.37868ZM1.37884 5.62132C0.207268 4.44975 0.207266 2.55025 1.37884 1.37868L4.91437 4.91421C5.69542 4.13316 5.69542 2.86683 4.91437 2.08579L1.37884 5.62132ZM1.88761 33.2071C0.71604 32.0355 0.71604 30.136 1.88761 28.9645L5.42315 32.5C6.20419 31.719 6.20419 30.4526 5.42315 29.6716L1.88761 33.2071ZM6.13025 33.2071C4.95868 34.3787 3.05918 34.3787 1.88761 33.2071L5.42315 29.6716C4.6421 28.8905 3.37577 28.8905 2.59472 29.6716L6.13025 33.2071ZM9.41571 21.4364C11.5636 19.2885 11.5636 15.8061 9.41571 13.6582L12.9512 10.1227C17.0517 14.2232 17.0518 20.8714 12.9512 24.9719L9.41571 21.4364ZM19.3152 15.0724C20.682 16.4392 20.682 18.6553 19.3152 20.0222L15.7797 16.4866C15.1939 17.0724 15.1939 18.0222 15.7797 18.6079L19.3152 15.0724Z" fill="white"/>
</svg>
