<svg width="21" height="35" viewBox="0 0 21 35" fill="none" xmlns="http://www.w3.org/2000/svg">
<path d="M3.85371 31.4392L5.62148 33.207L3.85371 31.4392ZM3.14661 30.7321L4.91437 32.4999L3.14661 30.7321ZM3.65538 3.85346L1.88761 5.62123L3.65538 3.85346ZM4.36249 3.14635L6.13025 1.37859L4.36249 3.14635ZM2.59472 4.91412L15.7797 18.0991L19.3152 14.5635L6.13025 1.37859L2.59472 4.91412ZM12.9512 9.61379L5.42315 2.08569L1.88761 5.62123L9.41571 13.1493L12.9512 9.61379ZM4.91437 32.4999L12.9512 24.463L9.41571 20.9275L1.37884 28.9644L4.91437 32.4999ZM15.7797 15.9778L2.08595 29.6715L5.62148 33.207L19.3152 19.5133L15.7797 15.9778ZM1.37884 33.207C2.55041 34.3786 4.44991 34.3786 5.62148 33.207L2.08595 29.6715C2.86699 28.8904 4.13332 28.8904 4.91437 29.6715L1.37884 33.207ZM1.37884 28.9644C0.207267 30.1359 0.207267 32.0354 1.37884 33.207L4.91437 29.6715C5.69542 30.4525 5.69542 31.7189 4.91437 32.4999L1.37884 28.9644ZM1.88761 1.37859C0.716039 2.55016 0.716039 4.44965 1.88761 5.62123L5.42315 2.08569C6.20419 2.86674 6.20419 4.13307 5.42315 4.91412L1.88761 1.37859ZM6.13025 1.37859C4.95868 0.207012 3.05918 0.207013 1.88761 1.37859L5.42315 4.91412C4.6421 5.69517 3.37577 5.69517 2.59472 4.91412L6.13025 1.37859ZM9.41571 13.1493C11.5636 15.2972 11.5636 18.7796 9.41571 20.9275L12.9512 24.463C17.0517 20.3625 17.0518 13.7143 12.9512 9.61379L9.41571 13.1493ZM19.3152 19.5133C20.682 18.1465 20.682 15.9304 19.3152 14.5635L15.7797 18.0991C15.1939 17.5133 15.1939 16.5635 15.7797 15.9778L19.3152 19.5133Z" fill="#6DA544"/>
</svg>
