<svg width="35" height="35" viewBox="0 0 35 35" fill="none" xmlns="http://www.w3.org/2000/svg">
<path d="M35 5.83325H0V29.1668H35V5.83325Z" fill="#0052B4"/>
<path d="M35 5.83325H0V13.6108H35V5.83325Z" fill="#D80027"/>
<path d="M35 21.3884H0V29.166H35V21.3884Z" fill="#F0F0F0"/>
<path d="M8.85034 12.4273V18.2472C8.85034 21.5577 13.1752 22.572 13.1752 22.572C13.1752 22.572 17.5 21.5576 17.5 18.2472V12.4273H8.85034V12.4273Z" fill="#D80027"/>
<path d="M10.6394 13.4418H15.7117V11.4128L14.6972 11.9201L13.1755 10.3984L11.6539 11.9201L10.6394 11.4128V13.4418Z" fill="#FFDA44"/>
<path d="M16.4859 19.0574L13.1889 15.7604L9.89185 19.0574L10.9679 20.1334L13.1889 17.9124L15.4099 20.1334L16.4859 19.0574Z" fill="#FFDA44"/>
<path d="M16.4859 15.978H14.9476C15.0341 15.8287 15.0844 15.6558 15.0844 15.4709C15.0844 14.9106 14.6301 14.4564 14.0699 14.4564C13.6828 14.4564 13.3466 14.6733 13.1756 14.9921C13.0045 14.6733 12.6683 14.4564 12.2812 14.4564C11.721 14.4564 11.2668 14.9106 11.2668 15.4709C11.2668 15.6559 11.3171 15.8287 11.4035 15.978H9.89185C9.89185 16.5382 10.3799 16.9924 10.9401 16.9924H10.9063C10.9063 17.5527 11.3605 18.0069 11.9208 18.0069C11.9208 18.503 12.277 18.9151 12.7475 19.0033L11.9481 20.808C12.3311 20.9638 12.7497 21.0503 13.1887 21.0503C13.6278 21.0503 14.0463 20.9638 14.4294 20.808L13.63 19.0033C14.1005 18.9151 14.4567 18.503 14.4567 18.0069C15.017 18.0069 15.4712 17.5527 15.4712 16.9924H15.4374C15.9979 16.9924 16.4859 16.5382 16.4859 15.978Z" fill="#F0F0F0"/>
</svg>
