<svg width="86" height="86" viewBox="0 0 86 86" fill="none" xmlns="http://www.w3.org/2000/svg">
<path d="M54.4833 48.711C53.4326 48.711 52.5829 47.8538 52.5829 46.8106C52.5829 41.027 47.8795 36.318 42.0884 36.318C41.0377 36.318 40.188 35.4626 40.188 34.4176C40.188 33.3675 41.0383 32.5172 42.0884 32.5172C49.9734 32.5172 56.3844 38.9332 56.3844 46.8106C56.3837 47.8531 55.534 48.711 54.4833 48.711ZM76.4746 76.084C76.4746 81.5485 72.0237 85.9994 66.5592 85.9994C61.0871 85.9994 56.6406 81.5447 56.6406 76.084C56.6406 73.9869 57.2975 72.0488 58.411 70.4486L52.2896 63.4033C49.3127 65.2334 45.8472 66.3469 42.0997 66.3469C37.9936 66.3469 34.189 65.0626 31.0412 62.8946L23.4609 69.8143C23.8948 70.7394 24.1536 71.7744 24.1536 72.8659C24.1536 76.901 20.874 80.19 16.8401 80.19C12.8069 80.19 9.52539 76.9079 9.52539 72.8659C9.52539 68.8301 12.8069 65.5524 16.8401 65.5524C18.3976 65.5524 19.8396 66.0574 21.0291 66.8927L28.1209 60.4182C24.6931 56.8881 22.5603 52.0993 22.5603 46.8093C22.5603 36.031 31.3301 27.2574 42.1066 27.2574C42.8062 27.2574 43.4638 27.3911 44.1427 27.4709L46.0394 18.9327C42.6115 17.3702 40.2093 13.9342 40.2093 9.91605C40.2099 4.45089 44.6571 0 50.1216 0C55.5937 0 60.0445 4.45465 60.0445 9.91668C60.0445 15.3869 55.5937 19.8359 50.1216 19.8359C49.9953 19.8359 49.8767 19.8045 49.7397 19.7969L47.8651 28.2239C55.8166 30.7034 61.6441 38.0483 61.6441 46.8106C61.6441 52.4679 59.1873 57.5312 55.3261 61.1103L61.1392 67.7926C62.7018 66.7677 64.5545 66.1585 66.5592 66.1585C72.0162 66.1579 76.4746 70.6131 76.4746 76.084ZM50.1065 16.0381C53.4847 16.0381 56.228 13.2855 56.228 9.91668C56.228 6.54978 53.4847 3.80087 50.1065 3.80087C46.7358 3.80087 43.9964 6.54978 43.9964 9.91668C43.9964 13.2855 46.7321 16.0381 50.1065 16.0381ZM20.3446 72.8659C20.3446 70.9278 18.7669 69.3539 16.8326 69.3539C14.897 69.3539 13.3194 70.9278 13.3194 72.8659C13.3194 74.8072 14.897 76.3885 16.8326 76.3885C18.7625 76.3892 20.3446 74.8072 20.3446 72.8659ZM42.0915 62.5573C50.7666 62.5573 57.8345 55.497 57.8345 46.81C57.8345 38.1217 50.7741 31.0595 42.0915 31.0595C33.4089 31.0595 26.3467 38.1217 26.3467 46.81C26.3467 55.497 33.4127 62.5573 42.0915 62.5573ZM72.6731 76.084C72.6731 72.702 69.9223 69.9587 66.5592 69.9587C64.9514 69.9587 63.5082 70.5899 62.416 71.6073C62.3344 71.7034 62.2904 71.8227 62.1861 71.9044C62.1422 71.949 62.09 71.9565 62.0379 71.986C61.0507 73.0775 60.4339 74.5032 60.4339 76.084C60.4339 79.4546 63.181 82.1979 66.5516 82.1979C69.9223 82.1979 72.6731 79.4552 72.6731 76.084Z" fill="#6DA544"/>
<circle cx="17" cy="73" r="5.5" stroke="#D80027" stroke-width="5"/>
</svg>
