<svg width="86" height="86" viewBox="0 0 86 86" fill="none" xmlns="http://www.w3.org/2000/svg">
<path d="M13.6328 68.6768C14.5605 68.6768 15.3125 67.9247 15.3125 66.9971C15.3125 66.0694 14.5605 65.3174 13.6328 65.3174C12.7051 65.3174 11.9531 66.0694 11.9531 66.9971C11.9531 67.9247 12.7051 68.6768 13.6328 68.6768Z" fill="#6DA544"/>
<path d="M77.4672 15.6126H67.5842C65.3533 15.6126 63.3046 16.4078 61.7064 17.7294V17.2923V12.6796C61.7064 6.08326 56.3403 0.717163 49.7441 0.717163H38.5381C37.6104 0.717163 36.8584 1.46933 36.8584 2.39685V7.00978C36.8584 13.6059 42.2245 18.972 48.8206 18.972H58.347V24.8499V29.3817V35.9992C57.9039 35.9708 57.4583 35.9552 57.0104 35.9552C52.5961 35.9552 48.3757 37.316 44.8063 39.8905C44.054 40.433 43.8839 41.4828 44.4266 42.2353C44.9693 42.9877 46.0191 43.1582 46.7714 42.6151C49.7651 40.4561 53.3059 39.3147 57.0104 39.3147C57.9059 39.3147 58.7911 39.3856 59.6607 39.5188C59.7327 39.5347 59.8065 39.5462 59.8817 39.5527C65.1087 40.4218 69.7309 43.631 72.3507 48.3595C72.6574 48.9129 73.2305 49.2254 73.8214 49.2254C74.0967 49.2254 74.3761 49.1575 74.6339 49.0146C75.4454 48.5649 75.7386 47.5427 75.289 46.7312C72.3824 41.4852 67.4064 37.8099 61.7062 36.4927V31.0614H69.9096C75.0029 31.0614 79.1469 26.9176 79.1469 21.8241V17.2923C79.1469 16.3648 78.3949 15.6126 77.4672 15.6126ZM58.347 15.6126H48.8206C44.077 15.6126 40.2178 11.7534 40.2178 7.00978V4.07654H49.7441C54.4877 4.07654 58.347 7.93579 58.347 12.6796V15.6126ZM75.7875 21.8243C75.7875 25.0652 73.1507 27.7022 69.9096 27.7022H61.7064V24.8501C61.7064 21.6091 64.3431 18.9722 67.5842 18.9722H75.7875V21.8243Z" fill="#6DA544"/>
<path d="M85.4393 55.2301C83.9733 51.9098 80.0793 50.402 76.759 51.8672C76.7506 51.8709 76.7424 51.8747 76.734 51.8784L65.7594 56.9395C64.9169 57.328 64.549 58.3259 64.9374 59.1683C65.3259 60.0108 66.3238 60.3785 67.1662 59.9903L78.1273 54.9355C79.7504 54.2263 81.6498 54.965 82.366 56.5871C83.0837 58.2129 82.345 60.1193 80.7194 60.8372L58.261 70.7532C54.7024 72.3246 50.6631 72.2334 47.1789 70.5021L38.9578 66.418C34.5772 64.2416 29.4983 64.1267 25.0242 66.1022L24.8626 66.1737L18.7184 52.2582L27.2486 48.492C31.3121 46.6978 35.8465 46.5531 40.0162 48.0842L56.5482 54.1554C58.0564 54.7094 58.8603 56.3966 58.3402 57.9167C57.8103 59.4661 56.1173 60.2992 54.5665 59.775L41.7824 55.451C40.9036 55.1536 39.9504 55.6251 39.6531 56.5039C39.3557 57.3828 39.8272 58.336 40.706 58.6333L53.4901 62.9573C54.1595 63.1837 54.8413 63.2912 55.5123 63.2912C58.1491 63.2912 60.6201 61.6314 61.5189 59.0045C62.6253 55.7704 60.915 52.1804 57.7065 51.0021L41.1747 44.9309C36.1837 43.0982 30.7563 43.2714 25.8922 45.4187L17.3072 49.2092C16.8243 48.4671 16.127 47.8932 15.2853 47.5668C14.2254 47.1563 13.069 47.183 12.0334 47.6402L1.00546 52.4722C0.394727 52.7399 0 53.3438 0 54.0108V83.6032C0 84.1865 0.30268 84.7281 0.799531 85.0339C1.06862 85.1994 1.37365 85.2829 1.67969 85.2829C1.9387 85.2829 2.19821 85.2231 2.43689 85.1025L23.8462 74.2871C24.8642 73.824 25.6461 72.9961 26.0508 71.9515C26.3879 71.0814 26.4302 70.1464 26.1806 69.264L26.3808 69.1757C29.9398 67.6043 33.9789 67.696 37.4631 69.427L45.6841 73.5111C50.0646 75.6875 55.1433 75.8025 59.6178 73.8267L82.0764 63.9107C85.3966 62.4445 86.9052 58.5503 85.4393 55.2301ZM22.9183 70.7378C22.8318 70.961 22.6637 71.1372 22.4447 71.2338C22.4179 71.2456 22.3917 71.2582 22.3657 71.2713L3.35937 80.8727V73.52L8.32755 71.0803C9.16034 70.6713 9.50384 69.6648 9.09484 68.832C8.68583 67.9992 7.67903 67.6557 6.84674 68.0647L3.35937 69.7772V55.1085L13.3851 50.7152C13.6041 50.6187 13.8477 50.613 14.0707 50.6993C14.294 50.7858 14.4702 50.9541 14.5669 51.173L22.4678 69.067C22.4685 69.0687 22.4692 69.0702 22.4699 69.0717L22.9027 70.052C22.9993 70.271 23.0048 70.5146 22.9183 70.7378Z" fill="#D80027"/>
</svg>
