<svg width="35" height="35" viewBox="0 0 35 35" fill="none" xmlns="http://www.w3.org/2000/svg">
<path d="M35 5.83356H0V29.1664H35V5.83356Z" fill="#F0F0F0"/>
<path d="M35 5.83356H0V13.6111H35V5.83356Z" fill="#D80027"/>
<path d="M35 21.3889H0V29.1664H35V21.3889Z" fill="#6DA544"/>
<path d="M15.4707 20.5435H19.5288V18.8188L18.7172 19.2247L17.4997 18.0073L16.2823 19.2247L15.4707 18.8188V20.5435Z" fill="#FFDA44"/>
<path d="M13.1492 18.5143L13.3381 19.0957H13.9492L13.4548 19.4549L13.6436 20.0361L13.1492 19.6769L12.6547 20.0361L12.8436 19.4549L12.3491 19.0957H12.9603L13.1492 18.5143Z" fill="#FFDA44"/>
<path d="M13.7351 16.4855L13.924 17.0667H14.5351L14.0407 17.4259L14.2296 18.0072L13.7351 17.6479L13.2406 18.0072L13.4295 17.4259L12.9351 17.0667H13.5462L13.7351 16.4855Z" fill="#FFDA44"/>
<path d="M15.4085 14.9637L15.5974 15.5449H16.2085L15.714 15.9042L15.9029 16.4855L15.4085 16.1262L14.914 16.4855L15.1028 15.9042L14.6084 15.5449H15.2195L15.4085 14.9637Z" fill="#FFDA44"/>
<path d="M21.8508 18.5143L21.6619 19.0957H21.0508L21.5452 19.4549L21.3563 20.0361L21.8508 19.6769L22.3453 20.0361L22.1564 19.4549L22.6509 19.0957H22.0397L21.8508 18.5143Z" fill="#FFDA44"/>
<path d="M21.2649 16.4855L21.076 17.0667H20.4648L20.9593 17.4259L20.7704 18.0072L21.2649 17.6479L21.7594 18.0072L21.5705 17.4259L22.0649 17.0667H21.4538L21.2649 16.4855Z" fill="#FFDA44"/>
<path d="M19.5915 14.9637L19.4026 15.5449H18.7915L19.2859 15.9042L19.0971 16.4855L19.5915 16.1262L20.086 16.4855L19.8971 15.9042L20.3916 15.5449H19.7805L19.5915 14.9637Z" fill="#FFDA44"/>
<path d="M17.4998 14.2028L17.6887 14.7841H18.2999L17.8053 15.1434L17.9942 15.7246L17.4998 15.3654L17.0053 15.7246L17.1942 15.1434L16.6997 14.7841H17.3109L17.4998 14.2028Z" fill="#FFDA44"/>
</svg>
