<svg width="35" height="35" viewBox="0 0 35 35" fill="none" xmlns="http://www.w3.org/2000/svg">
<path d="M35 5.83356H0V29.1664H35V5.83356Z" fill="#496E2D"/>
<path d="M24.4183 12.5562C24.9923 10.9563 24.3474 9.21633 22.9635 8.34967C23.2124 8.38207 23.4616 8.44066 23.7075 8.52884C25.5534 9.19111 26.5129 11.2241 25.8506 13.07C25.1883 14.9159 23.1553 15.8754 21.3094 15.2131C21.0635 15.1248 20.8338 15.0116 20.6211 14.8785C22.2403 15.0893 23.8442 14.1562 24.4183 12.5562Z" fill="#F0F0F0"/>
<path d="M21.2349 7.91113L20.7361 8.55556L19.9691 8.28034L20.4279 8.95382L19.9292 9.59824L20.7114 9.37006L21.1703 10.0435L21.1949 9.2291L21.9772 9.00085L21.2102 8.7257L21.2349 7.91113Z" fill="#F0F0F0"/>
<path d="M22.5821 10.011L22.0834 10.6554L21.3163 10.3802L21.7751 11.0537L21.2764 11.6981L22.0586 11.4698L22.5174 12.1434L22.542 11.3289L23.3244 11.1006L22.5574 10.8255L22.5821 10.011Z" fill="#F0F0F0"/>
<path d="M18.8604 8.67584L18.3616 9.32027L17.5947 9.04519L18.0534 9.71859L17.5547 10.3629L18.3369 10.1348L18.7958 10.8082L18.8204 9.99374L19.6027 9.76563L18.8357 9.49034L18.8604 8.67584Z" fill="#F0F0F0"/>
<path d="M18.8057 11.0814L18.307 11.7258L17.5399 11.4506L17.9987 12.1241L17.5 12.7685L18.2823 12.5403L18.7411 13.2138L18.7658 12.3993L19.548 12.1711L18.7811 11.8959L18.8057 11.0814Z" fill="#F0F0F0"/>
<path d="M21.0948 11.9026L20.596 12.5471L19.8291 12.2719L20.2879 12.9454L19.7891 13.5898L20.5714 13.3616L21.0302 14.0351L21.0548 13.2206L21.837 12.9924L21.0701 12.7172L21.0948 11.9026Z" fill="#F0F0F0"/>
<path d="M11.7935 5.83356H5.70654V29.1664H11.7935V5.83356Z" fill="#D80027"/>
<path d="M8.0296 11.976L7.0105 11.2169V10.1433L8.0296 9.38416H9.47089L10.49 10.1433V11.2169L9.47089 11.976H8.0296Z" fill="#F0F0F0"/>
<path d="M8.75024 9.38416H8.0296L7.0105 10.1433V10.6681H8.75024V9.38416Z" fill="#FF9811"/>
<path d="M8.75 11.976H9.47065L10.4897 11.2168V10.6691H8.75V11.976Z" fill="#FF9811"/>
<path d="M8.0296 25.616L7.0105 24.8568V23.7833L8.0296 23.0242H9.47089L10.49 23.7833V24.8568L9.47089 25.616H8.0296Z" fill="#F0F0F0"/>
<path d="M8.75024 23.0242H8.0296L7.0105 23.7833V24.3082H8.75024V23.0242Z" fill="#FF9811"/>
<path d="M8.75 25.6161H9.47065L10.4897 24.8569V24.3093H8.75V25.6161Z" fill="#FF9811"/>
<path d="M8.02887 18.7959L7.00977 18.0368V16.9634L8.02887 16.2042H9.47016L10.4893 16.9634V18.0368L9.47016 18.7959H8.02887Z" fill="#496E2D"/>
<path d="M10.5253 20.4662H10.0815V20.0224H9.30143L8.7499 19.4708L8.19845 20.0224H7.41847V20.4662H6.97461V21.3539H7.41847V21.7977H8.19845L8.74997 22.3493L9.30149 21.7977H10.0815V21.3539H10.5253V20.4662Z" fill="#496E2D"/>
<path d="M10.5253 13.6461H10.0815V13.2023H9.30143L8.7499 12.6507L8.19845 13.2023H7.41847V13.6461H6.97461V14.5338H7.41847V14.9776H8.19845L8.74997 15.5292L9.30149 14.9776H10.0815V14.5338H10.5253V13.6461Z" fill="#496E2D"/>
<path d="M9.25664 16.9925H8.24219V18.0069H9.25664V16.9925Z" fill="#D80027"/>
<path d="M8.74997 14.597C9.03014 14.597 9.25726 14.3699 9.25726 14.0898C9.25726 13.8096 9.03014 13.5825 8.74997 13.5825C8.4698 13.5825 8.24268 13.8096 8.24268 14.0898C8.24268 14.3699 8.4698 14.597 8.74997 14.597Z" fill="#D80027"/>
<path d="M8.74972 21.4175C9.02989 21.4175 9.25702 21.1904 9.25702 20.9102C9.25702 20.63 9.02989 20.4029 8.74972 20.4029C8.46955 20.4029 8.24243 20.63 8.24243 20.9102C8.24243 21.1904 8.46955 21.4175 8.74972 21.4175Z" fill="#D80027"/>
</svg>
