<svg width="30" height="30" viewBox="0 0 30 30" fill="none" xmlns="http://www.w3.org/2000/svg">
<path d="M15.4355 0.183733C15.1917 -0.0606611 14.796 -0.0611299 14.5516 0.18262C14.5512 0.182972 14.5508 0.183382 14.5505 0.183733L3.30045 11.4337C3.06063 11.682 3.06754 12.0777 3.3158 12.3175C3.55803 12.5514 3.94199 12.5514 4.18416 12.3175L14.3679 2.13373V29.375C14.3679 29.7201 14.6478 30 14.993 30C15.3381 30 15.618 29.7201 15.618 29.375V2.13373L25.8004 12.3162C26.0403 12.5645 26.4359 12.5714 26.6842 12.3316C26.9325 12.0917 26.9393 11.6961 26.6996 11.4478C26.6945 11.4426 26.6894 11.4375 26.6842 11.4324L15.4355 0.183733Z" fill="#4CAF50"/>
<path d="M26.2429 12.4999C26.077 12.5002 25.9178 12.4346 25.8004 12.3174L14.9929 1.50864L4.18542 12.3174C3.93716 12.5573 3.54147 12.5503 3.30165 12.3021C3.06774 12.0599 3.06774 11.6759 3.30165 11.4337L14.5517 0.183721C14.7957 -0.0602637 15.1913 -0.0602637 15.4354 0.183721L26.6854 11.4337C26.9291 11.6782 26.9285 12.0739 26.684 12.3176C26.5669 12.4343 26.4083 12.4999 26.2429 12.4999Z" fill="white"/>
<path d="M14.9929 30C14.6478 30 14.3679 29.7202 14.3679 29.375V0.62502C14.3679 0.279844 14.6478 0 14.9929 0C15.3381 0 15.618 0.279844 15.618 0.62502V29.375C15.6179 29.7202 15.3381 30 14.9929 30Z" fill="white"/>
</svg>
