<svg width="35" height="35" viewBox="0 0 35 35" fill="none" xmlns="http://www.w3.org/2000/svg">
<path d="M35 5.83356H0V29.1664H35V5.83356Z" fill="#D80027"/>
<path d="M35 22.0652H0V29.1664H35V22.0652Z" fill="#6DA544"/>
<path d="M35 5.83356H0V12.9781H35V5.83356Z" fill="#338AF3"/>
<path d="M35 14.4155H0V20.5443H35V14.4155Z" fill="#F0F0F0"/>
<path d="M35 5.83356H0V12.9781H35V5.83356Z" fill="#338AF3"/>
<path d="M12.8989 9.40539C12.8989 8.31273 13.6668 7.39979 14.6924 7.17592C14.5347 7.14153 14.3712 7.1228 14.2032 7.1228C12.9426 7.1228 11.9207 8.14471 11.9207 9.40539C11.9207 10.6661 12.9426 11.688 14.2032 11.688C14.3713 11.688 14.5348 11.6693 14.6924 11.6349C13.6668 11.411 12.8989 10.498 12.8989 9.40539Z" fill="#F0F0F0"/>
<path d="M16.0417 10.4429L16.1963 10.9185H16.6964L16.2918 11.2125L16.4464 11.688L16.0417 11.3941L15.6372 11.688L15.7918 11.2125L15.3872 10.9185H15.8873L16.0417 10.4429Z" fill="#F0F0F0"/>
<path d="M17.6377 10.4429L17.7922 10.9185H18.2922L17.8877 11.2125L18.0422 11.688L17.6377 11.3941L17.2331 11.688L17.3876 11.2125L16.9832 10.9185H17.4831L17.6377 10.4429Z" fill="#F0F0F0"/>
<path d="M19.2332 10.4429L19.3877 10.9185H19.8878L19.4833 11.2125L19.6378 11.688L19.2332 11.3941L18.8287 11.688L18.9832 11.2125L18.5786 10.9185H19.0787L19.2332 10.4429Z" fill="#F0F0F0"/>
<path d="M20.8291 10.4429L20.9837 10.9185H21.4838L21.0792 11.2125L21.2337 11.688L20.8291 11.3941L20.4246 11.688L20.5792 11.2125L20.1746 10.9185H20.6745L20.8291 10.4429Z" fill="#F0F0F0"/>
<path d="M22.4255 10.4429L22.58 10.9185H23.0801L22.6755 11.2125L22.8301 11.688L22.4255 11.3941L22.021 11.688L22.1755 11.2125L21.771 10.9185H22.271L22.4255 10.4429Z" fill="#F0F0F0"/>
<path d="M17.6377 8.7829L17.7922 9.25841H18.2922L17.8877 9.55235L18.0422 10.0279L17.6377 9.73405L17.2331 10.0279L17.3876 9.55235L16.9832 9.25841H17.4831L17.6377 8.7829Z" fill="#F0F0F0"/>
<path d="M19.2332 8.7829L19.3877 9.25841H19.8878L19.4833 9.55235L19.6378 10.0279L19.2332 9.73405L18.8287 10.0279L18.9832 9.55235L18.5786 9.25841H19.0787L19.2332 8.7829Z" fill="#F0F0F0"/>
<path d="M20.8291 8.7829L20.9837 9.25841H21.4838L21.0792 9.55235L21.2337 10.0279L20.8291 9.73405L20.4246 10.0279L20.5792 9.55235L20.1746 9.25841H20.6745L20.8291 8.7829Z" fill="#F0F0F0"/>
<path d="M22.4255 8.7829L22.58 9.25841H23.0801L22.6755 9.55235L22.8301 10.0279L22.4255 9.73405L22.021 10.0279L22.1755 9.55235L21.771 9.25841H22.271L22.4255 8.7829Z" fill="#F0F0F0"/>
<path d="M19.2332 7.1228L19.3877 7.59831H19.8878L19.4833 7.89226L19.6378 8.36783L19.2332 8.07389L18.8287 8.36783L18.9832 7.89226L18.5786 7.59831H19.0787L19.2332 7.1228Z" fill="#F0F0F0"/>
<path d="M20.8291 7.1228L20.9837 7.59831H21.4838L21.0792 7.89226L21.2337 8.36783L20.8291 8.07389L20.4246 8.36783L20.5792 7.89226L20.1746 7.59831H20.6745L20.8291 7.1228Z" fill="#F0F0F0"/>
<path d="M22.4255 7.1228L22.58 7.59831H23.0801L22.6755 7.89226L22.8301 8.36783L22.4255 8.07389L22.021 8.36783L22.1755 7.89226L21.771 7.59831H22.271L22.4255 7.1228Z" fill="#F0F0F0"/>
</svg>
