<svg width="27" height="20" viewBox="0 0 27 20" fill="none" xmlns="http://www.w3.org/2000/svg">
<path d="M17.429 8.73336L11.5825 5.46888C11.2464 5.28117 10.849 5.28818 10.5195 5.48742C10.1898 5.68687 9.99316 6.03919 9.99316 6.43026V12.9032C9.99316 13.2924 10.1886 13.6441 10.5161 13.8438C10.6871 13.948 10.8767 14.0004 11.0667 14.0004C11.2407 14.0004 11.4152 13.9565 11.5757 13.8683L17.4223 10.66C17.7694 10.4695 17.986 10.1013 17.9876 9.69887C17.989 9.29647 17.775 8.92663 17.429 8.73336ZM11.544 12.0889V7.25112L15.9135 9.69104L11.544 12.0889Z" fill="white"/>
<path d="M26.4524 4.72038L26.4511 4.70829C26.4286 4.49575 26.2039 2.60526 25.2764 1.6437C24.2043 0.512712 22.989 0.375317 22.4044 0.30944C22.356 0.304001 22.3117 0.298965 22.2721 0.293727L22.2255 0.288892C18.7026 0.0350538 13.3821 0.000402917 13.3288 0.000201459L13.3242 0L13.3195 0.000201459C13.2662 0.000402917 7.94579 0.0350538 4.3911 0.288892L4.34414 0.293727C4.30632 0.298763 4.26465 0.303397 4.21931 0.308635C3.6415 0.374713 2.43912 0.512309 1.36401 1.68419C0.480627 2.63548 0.225268 4.48548 0.199041 4.69338L0.195992 4.72038C0.188062 4.80882 0 6.91426 0 9.02796V11.0039C0 13.1176 0.188062 15.223 0.195992 15.3117L0.197415 15.325C0.219982 15.5341 0.444437 17.3899 1.36767 18.3519C2.37569 19.445 3.65024 19.5896 4.3358 19.6674C4.44417 19.6797 4.53749 19.6902 4.60112 19.7012L4.66273 19.7097C6.69685 19.9015 13.0745 19.996 13.3449 19.9998L13.353 20L13.3612 19.9998C13.4144 19.9996 18.7347 19.9649 22.2576 19.7111L22.3042 19.7063C22.3487 19.7004 22.3987 19.6952 22.4536 19.6896C23.0282 19.6291 24.2241 19.5036 25.2843 18.3476C26.1677 17.3961 26.4233 15.5462 26.4493 15.3385L26.4524 15.3115C26.4603 15.2228 26.6485 13.1176 26.6485 11.0039V9.02796C26.6483 6.91426 26.4603 4.80902 26.4524 4.72038ZM25.0867 11.0039C25.0867 12.9602 24.9143 14.975 24.898 15.16C24.8318 15.6694 24.5624 16.8399 24.132 17.3035C23.4684 18.0269 22.7867 18.0986 22.289 18.1508C22.2288 18.1571 22.1731 18.1631 22.1226 18.1693C18.7152 18.4135 13.5956 18.451 13.3598 18.4524C13.0952 18.4486 6.81091 18.3533 4.8388 18.1718C4.73775 18.1554 4.62857 18.143 4.5135 18.1301C3.92979 18.0638 3.13078 17.9731 2.51638 17.3035L2.50194 17.2882C2.07906 16.8516 1.81739 15.7571 1.75091 15.166C1.73851 15.0262 1.56163 12.9876 1.56163 11.0039V9.02796C1.56163 7.07381 1.73363 5.06124 1.7503 4.87248C1.82939 4.27233 2.10386 3.17277 2.51638 2.72835C3.20031 1.98296 3.92146 1.90036 4.39842 1.84576C4.44397 1.84053 4.48646 1.83569 4.5257 1.83065C7.98279 1.58528 13.1392 1.54881 13.3242 1.5474C13.5092 1.54861 18.6637 1.58528 22.0901 1.83065C22.1322 1.83589 22.1782 1.84113 22.2276 1.84677C22.7181 1.90217 23.4596 1.98598 24.1401 2.70519L24.1464 2.71183C24.5693 3.14839 24.8309 4.26206 24.8974 4.86502C24.9092 4.99698 25.0867 7.03997 25.0867 9.02796V11.0039Z" fill="white"/>
</svg>
